<?xml version="1.0" encoding="iso-8859-1"?>
<!-- Generator: Adobe Illustrator 16.0.0, SVG Export Plug-In . SVG Version: 6.00 Build 0)  -->
<!DOCTYPE svg PUBLIC "-//W3C//DTD SVG 1.0//EN" "http://www.w3.org/TR/2001/REC-SVG-20010904/DTD/svg10.dtd">
<svg version="1.0" id="Layer_1" xmlns="http://www.w3.org/2000/svg" xmlns:xlink="http://www.w3.org/1999/xlink" x="0px" y="0px"
	 width="58.002px" height="58.002px" viewBox="77.999 44.999 58.002 58.002"
	 style="enable-background:new 77.999 44.999 58.002 58.002;" xml:space="preserve">
<g>
	<g>
		<path d="M107,44.999c-15.991,0-29.001,13.01-29.001,29.001s13.01,29.001,29.001,29.001S136.001,89.991,136.001,74
			S122.991,44.999,107,44.999z M107,98.247C93.631,98.247,82.754,87.37,82.754,74c0-13.369,10.877-24.245,24.246-24.245
			c13.37,0,24.245,10.876,24.245,24.245C131.245,87.37,120.37,98.247,107,98.247z M120.977,71.623H93.024
			c-1.313,0-2.378,1.064-2.378,2.377s1.065,2.377,2.378,2.377h27.952c1.312,0,2.377-1.064,2.377-2.377
			S122.289,71.623,120.977,71.623z"/>
	</g>
</g>
</svg>
