<?xml version="1.0" encoding="iso-8859-1"?>
<!-- Generator: Adobe Illustrator 16.0.0, SVG Export Plug-In . SVG Version: 6.00 Build 0)  -->
<!DOCTYPE svg PUBLIC "-//W3C//DTD SVG 1.0//EN" "http://www.w3.org/TR/2001/REC-SVG-20010904/DTD/svg10.dtd">
<svg version="1.0" id="Layer_1" xmlns="http://www.w3.org/2000/svg" xmlns:xlink="http://www.w3.org/1999/xlink" x="0px" y="0px"
	 width="57.678px" height="58.002px" viewBox="78.323 44.999 57.678 58.002"
	 style="enable-background:new 78.323 44.999 57.678 58.002;" xml:space="preserve">
<g>
	<g>
		<path style="fill:#E2231A;" d="M107.123,45.417c-15.782,0-28.623,12.841-28.623,28.625c0,15.781,12.841,28.621,28.623,28.621
			c15.781,0,28.622-12.84,28.622-28.621C135.745,58.258,122.904,45.417,107.123,45.417z M107.123,97.972
			c-13.195,0-23.93-10.737-23.93-23.931c0-13.196,10.735-23.933,23.93-23.933c13.194,0,23.933,10.737,23.933,23.933
			C131.056,87.234,120.317,97.972,107.123,97.972z M120.915,71.693h-11.447V60.245c0-1.296-1.05-2.346-2.345-2.346
			c-1.296,0-2.346,1.05-2.346,2.346v11.448H93.329c-1.296,0-2.346,1.051-2.346,2.348c0,1.294,1.05,2.345,2.346,2.345h11.448v11.447
			c0,1.297,1.05,2.347,2.346,2.347c1.295,0,2.345-1.05,2.345-2.347V76.386h11.447c1.3,0,2.348-1.051,2.348-2.345
			C123.263,72.744,122.215,71.693,120.915,71.693z"/>
	</g>
</g>
</svg>
