<?xml version="1.0" encoding="iso-8859-1"?>
<!-- Generator: Adobe Illustrator 16.0.0, SVG Export Plug-In . SVG Version: 6.00 Build 0)  -->
<!DOCTYPE svg PUBLIC "-//W3C//DTD SVG 1.1//EN" "http://www.w3.org/Graphics/SVG/1.1/DTD/svg11.dtd">
<svg version="1.1" id="Layer_1" xmlns="http://www.w3.org/2000/svg" xmlns:xlink="http://www.w3.org/1999/xlink" x="0px" y="0px"
	 width="31.001px" height="31.001px" viewBox="0 0 31.001 31.001" style="enable-background:new 0 0 31.001 31.001;"
	 xml:space="preserve">
<path d="M14.295,9.645L14.295,9.645C14.467,9.645,14.467,9.645,14.295,9.645c0.172-0.689,0.344-1.033,0.344-1.55V7.75
	c0.172-0.861,0.172-1.55,0-1.723c0,0,0,0,0-0.172l-0.172-0.172l0,0l0,0c0,0,0,0.172-0.172,0.172
	C13.951,6.889,13.951,8.095,14.295,9.645L14.295,9.645z M9.128,21.528c-0.344,0.172-0.689,0.345-0.861,0.517
	c-1.206,1.034-2.067,2.239-2.239,2.756l0,0l0,0l0,0C7.061,24.628,8.095,23.595,9.128,21.528C9.3,21.528,9.3,21.528,9.128,21.528
	C9.3,21.528,9.128,21.528,9.128,21.528z M24.973,18.945c-0.172-0.172-0.861-0.689-3.272-0.689c-0.172,0-0.172,0-0.344,0l0,0
	c0,0,0,0,0,0.172c1.206,0.517,2.411,0.861,3.272,0.861c0.172,0,0.172,0,0.345,0l0,0h0.172c0,0,0,0,0-0.172l0,0
	C25.145,19.117,24.973,19.117,24.973,18.945z M27.557,0H3.444C1.55,0,0,1.55,0,3.444v24.112c0,1.895,1.55,3.444,3.444,3.444h24.112
	c1.895,0,3.444-1.55,3.444-3.444V3.444C31.001,1.55,29.451,0,27.557,0z M25.662,20.323c-0.344,0.172-0.861,0.345-1.55,0.345
	c-1.378,0-3.444-0.345-5.167-1.206c-2.928,0.344-5.167,0.689-6.889,1.377c-0.172,0-0.172,0-0.344,0.172
	c-2.067,3.617-3.789,5.339-5.167,5.339c-0.344,0-0.517,0-0.689-0.172l-0.861-0.517V25.49c-0.172-0.344-0.172-0.517-0.172-0.861
	c0.172-0.861,1.206-2.411,3.272-3.617c0.344-0.172,0.861-0.517,1.55-0.861c0.517-0.861,1.034-1.895,1.723-3.101
	c0.861-1.722,1.377-3.444,1.894-4.995l0,0c-0.688-2.066-1.033-3.272-0.344-5.683c0.172-0.689,0.689-1.378,1.378-1.378h0.344
	c0.345,0,0.689,0.172,1.034,0.344c1.206,1.206,0.689,3.961,0,6.2c0,0.172,0,0.172,0,0.172c0.689,1.895,1.722,3.444,2.755,4.478
	c0.517,0.344,0.861,0.689,1.55,1.033c0.861,0,1.55-0.172,2.239-0.172c2.067,0,3.444,0.345,3.961,1.206
	c0.172,0.344,0.172,0.689,0.172,1.033C26.179,19.462,26.006,19.979,25.662,20.323z M14.467,13.606
	c-0.345,1.206-1.034,2.583-1.723,4.133c-0.344,0.689-0.689,1.206-1.033,1.895h0.172h0.172l0,0c2.239-0.861,4.306-1.377,5.684-1.55
	c-0.344-0.172-0.517-0.345-0.689-0.517C16.189,16.534,15.156,15.156,14.467,13.606z"/>
</svg>
