<?xml version="1.0" encoding="utf-8"?>
<!-- Generator: Adobe Illustrator 16.0.0, SVG Export Plug-In . SVG Version: 6.00 Build 0)  -->
<!DOCTYPE svg PUBLIC "-//W3C//DTD SVG 1.1//EN" "http://www.w3.org/Graphics/SVG/1.1/DTD/svg11.dtd">
<svg version="1.1" id="Layer_1" xmlns="http://www.w3.org/2000/svg" xmlns:xlink="http://www.w3.org/1999/xlink" x="0px" y="0px"
	 width="24px" height="24px" viewBox="0 0 24 24" enable-background="new 0 0 24 24" xml:space="preserve">
<path fill="#FFFFFF" d="M12,24c6.617,0,12-5.383,12-12S18.617,0,12,0S0,5.383,0,12S5.383,24,12,24 M8,7.5
	c0-0.173,0.09-0.334,0.237-0.425c0.148-0.092,0.332-0.099,0.487-0.022l9,4.5C17.893,11.638,18,11.811,18,12
	s-0.107,0.362-0.275,0.447l-9,4.5C8.653,16.982,8.576,17,8.5,17c-0.091,0-0.183-0.025-0.263-0.075C8.09,16.834,8,16.673,8,16.5V7.5z
	"/>
</svg>
