<?xml version="1.0" encoding="iso-8859-1"?>
<!-- Generator: Adobe Illustrator 16.0.0, SVG Export Plug-In . SVG Version: 6.00 Build 0)  -->
<!DOCTYPE svg PUBLIC "-//W3C//DTD SVG 1.1//EN" "http://www.w3.org/Graphics/SVG/1.1/DTD/svg11.dtd">
<svg version="1.1" id="Layer_1" xmlns="http://www.w3.org/2000/svg" xmlns:xlink="http://www.w3.org/1999/xlink" x="0px" y="0px"
	 width="19.999px" height="19.999px" viewBox="0 0 19.999 19.999" style="enable-background:new 0 0 19.999 19.999;"
	 xml:space="preserve">
<path style="fill:#FFFFFF;" d="M19.51,17.146l-4.345-4.345c-0.023-0.023-0.05-0.039-0.074-0.061
	c0.854-1.297,1.354-2.849,1.354-4.519C16.444,3.681,12.763,0,8.222,0S0,3.681,0,8.222s3.681,8.222,8.222,8.222
	c1.669,0,3.222-0.499,4.519-1.354c0.021,0.024,0.038,0.051,0.061,0.074l4.345,4.345c0.653,0.652,1.711,0.652,2.364,0
	C20.162,18.857,20.162,17.799,19.51,17.146z M8.222,13.594c-2.967,0-5.372-2.405-5.372-5.372S5.255,2.85,8.222,2.85
	s5.372,2.405,5.372,5.372S11.189,13.594,8.222,13.594z"/>
</svg>
