<?xml version="1.0" standalone="no"?>
<!DOCTYPE svg PUBLIC "-//W3C//DTD SVG 1.1//EN" "http://www.w3.org/Graphics/SVG/1.1/DTD/svg11.dtd" >
<svg xmlns="http://www.w3.org/2000/svg">
<metadata>Generated by IcoMoon</metadata>
<defs>
<font id="armstrongicon" horiz-adv-x="1024">
<font-face units-per-em="1024" ascent="960" descent="-64" />
<missing-glyph horiz-adv-x="1024" />
<glyph unicode="&#x20;" horiz-adv-x="512" d="" />
<glyph unicode="&#xe900;" glyph-name="armstrong-logo" horiz-adv-x="3168" d="M524.206 2.168c0-16.703-2.57-43.684-26.981-43.684-21.199 0-30.836 14.775-30.836 73.235s9.636 71.95 30.836 71.95c21.199 0.642 25.696-18.63 25.696-35.332v-3.212h28.908v3.212c0 18.63-3.212 57.174-54.605 57.174-46.253 0-60.386-29.551-60.386-94.434s14.133-94.434 60.386-94.434c43.041 0 55.89 32.12 55.89 64.883v3.854h-28.908v-3.212zM606.434 22.083h64.883v25.054h-64.883v50.108h69.38v24.412h-98.931v-181.802h100.858v24.412h-71.307zM700.226 121.656h28.908v-181.802h-28.908v181.802zM787.593 121.656h-28.908v-181.802h99.573v24.412h-70.665zM878.173 121.656h28.908v-181.802h-28.908v181.802zM1026.57-13.892v0l-53.32 135.548h-35.332v-181.802h27.624v139.403h0.642l52.678-139.403h35.332v181.802h-27.624zM1140.276 13.731h30.836c0-39.829-8.351-55.89-30.193-55.247-19.915 0-29.551 14.775-29.551 73.235 0 57.817 10.921 71.95 31.478 71.95 19.915 0 25.696-16.060 25.696-29.551v-4.497h27.624v3.212c0 16.703-7.709 52.678-53.32 52.678-41.757 0-60.386-29.551-60.386-94.434s14.133-94.434 53.962-94.434c21.199 0 32.12 7.709 39.829 24.412h0.642v-21.199h21.842v95.719h-57.817v-21.842zM1411.373 24.010v2.57h-23.127v-3.854c0-9.636-2.57-20.557-7.066-27.624l-32.12 44.969 9.636 7.066c12.848 9.636 22.484 21.199 22.484 38.545 0 30.193-26.339 37.26-39.829 37.26-24.412 0-43.041-12.848-43.041-39.187 0-9.636 5.139-19.915 11.563-29.551l7.066-10.279-11.563-8.351c-15.418-11.563-25.696-27.624-25.696-47.538 0-19.272 11.563-50.108 53.32-50.108 20.557 0 34.048 8.351 45.611 19.272l10.921-15.418h30.836l-24.412 34.69c12.848 15.418 15.418 37.902 15.418 47.538zM1339.423 103.026c10.921 0 17.345-6.424 17.345-17.345 0-9.636-7.066-17.345-13.491-23.769l-6.424-5.782-3.854 5.139c-5.139 7.066-10.921 16.060-10.921 25.054 0.642 12.848 10.279 16.703 17.345 16.703zM1338.138-40.873c-16.703 0-30.836 12.848-30.836 28.908 0 13.491 6.424 23.769 16.703 32.12l5.139 4.497 37.26-52.035c-7.066-6.424-16.060-13.491-28.266-13.491zM1645.21 121.656l-23.769-141.972h-0.642l-24.412 141.972h-30.193l-24.412-141.33-24.412 141.33h-28.908l35.332-181.802h33.405l23.127 136.833h0.642l23.127-136.833h34.048l35.975 181.802zM1721.014 121.656l-52.035-181.802h30.193l11.563 44.326h53.32l10.921-44.326h30.193l-48.181 181.802h-35.975zM1716.517 7.307l21.842 89.937h0.642l21.199-89.937h-43.684zM1852.065 121.656h-28.908v-181.802h99.573v24.412h-70.665zM1970.911 121.656h-28.908v-181.802h98.931v24.412h-70.023zM2196.397 39.428l-19.915 7.066c-19.272 7.709-26.981 15.418-26.981 30.836 0 19.272 12.206 26.339 24.412 26.339 17.987 0 25.696-9.636 25.696-26.339v-3.854h28.908v3.854c0 18.63-5.139 48.181-51.393 48.181-34.048 0-56.532-18.63-56.532-51.393 0-25.696 11.563-39.829 37.902-50.108l19.915-7.066c16.060-5.139 25.696-13.491 25.696-32.12 0-13.491-8.994-26.339-27.624-26.339-19.915 0-29.551 10.921-29.551 33.405v4.497h-28.908v-4.497c0-25.696 10.279-55.247 55.247-55.247 36.617 0 60.386 16.060 60.386 54.605-0.642 25.054-11.563 38.545-37.26 48.181zM2304.321 43.282l-30.193 78.374h-32.763l46.896-110.494v-71.307h28.908v71.307l48.823 110.494h-30.193zM2452.718 39.428l-19.915 7.066c-19.272 7.709-26.981 15.418-26.981 30.836 0 19.272 12.206 26.339 24.412 26.339 17.987 0 25.696-9.636 25.696-26.339v-3.854h28.908v3.854c0 18.63-5.139 48.181-51.393 48.181-34.048 0-56.532-18.63-56.532-51.393 0-25.696 11.563-39.829 37.902-50.108l19.915-7.066c16.060-5.139 25.696-13.491 25.696-32.12 0-13.491-8.994-26.339-27.624-26.339-19.915 0-29.551 10.921-29.551 33.405v4.497h-28.908v-4.497c0-25.696 10.279-55.247 55.247-55.247 36.617 0 60.386 16.060 60.386 54.605-0.642 25.054-11.563 38.545-37.26 48.181zM2503.468 97.245h43.041v-157.39h29.551v157.39h42.399v24.412h-114.991zM2667.925 22.083h65.526v25.054h-65.526v50.108h69.38v24.412h-98.289v-181.802h100.216v24.412h-71.307zM2840.733-13.25h-0.642l-32.12 134.906h-45.611v-181.802h27.624v151.609h0.642l36.617-151.609h24.412l36.617 151.609h0.642v-151.609h27.624v181.802h-44.326zM3020.607 39.428l-19.915 7.066c-19.272 7.709-26.981 15.418-26.981 30.836 0 19.272 12.206 26.339 24.412 26.339 17.987 0 25.696-9.636 25.696-26.339v-3.854h28.908v3.854c0 18.63-5.139 48.181-51.393 48.181-34.048 0-56.532-18.63-56.532-51.393 0-25.696 11.563-39.829 37.902-50.108l19.915-7.066c16.060-5.139 25.696-13.491 25.696-32.12 0-13.491-8.994-26.339-27.624-26.339-19.915 0-29.551 10.921-29.551 33.405v4.497h-28.908v-4.497c0-25.696 10.279-55.247 55.247-55.247 36.617 0 60.386 16.060 60.386 54.605-0.642 25.054-11.563 38.545-37.26 48.181zM1627.222 575.197c0-64.241 37.26-89.937 100.858-89.937 37.902 0 78.374 0 78.374 0v65.526h-48.823c-27.624 0-44.969 12.206-44.969 52.035v102.785h85.44v67.453h-85.44v59.102h-84.798v-59.102h-40.472v-66.811h40.472c-1.285-0.642-0.642-77.731-0.642-131.051zM1586.75 578.409c0 71.95-57.817 79.016-127.839 91.864-51.393 8.994-71.307 11.563-71.307 26.981 0 13.491 16.703 23.769 48.823 23.769 49.465 0 50.108-14.133 50.108-14.133h87.368c0 0 1.927 18.63-12.848 38.545-16.703 23.127-54.605 39.187-120.13 39.187-88.652 0-143.9-37.902-143.9-96.361 0-40.472 16.703-69.38 122.058-86.083 68.095-10.921 76.447-14.775 76.447-33.405 0-10.921-8.994-25.054-51.393-25.054-59.744 0-57.817 25.054-57.817 25.054h-89.295c0.642-72.592 73.877-89.295 145.827-89.295 75.162-1.927 143.9 21.199 143.9 98.931zM2886.344 347.142c127.839 0 165.099 83.513 165.099 167.669v260.818h-82.871v-26.981c0 0-26.339 35.332-104.070 35.332-82.871 0-150.324-57.174-150.324-148.396 0-94.434 55.247-150.324 161.245-150.324 62.956 0 91.864 35.332 91.864 35.332v-20.557c0-57.817-26.339-86.725-75.804-86.725-38.545 0-55.247 10.921-63.598 26.339-4.497 8.351-5.139 14.775-5.139 14.775h-85.44c0 0-0.642-10.279 1.927-21.842 10.279-39.829 48.823-85.44 147.112-85.44zM2887.629 546.289c-52.035 0-82.228 28.266-82.228 82.228 0 55.247 29.551 88.652 82.871 88.652 43.684 0 77.731-25.696 77.731-72.592 0-2.57 0-12.848 0-15.418 0-50.108-28.266-82.871-78.374-82.871zM2364.065 630.444c0 93.149-66.811 152.893-172.808 152.893-108.567 0-173.45-61.671-173.45-152.893s62.314-152.893 173.45-152.893c107.282 0 172.808 59.744 172.808 152.893zM2108.387 630.444c0 49.465 26.339 86.083 82.871 86.083 55.89 0 82.228-34.69 82.228-86.083 0-50.75-28.266-86.083-82.228-86.083-52.678 0-82.871 32.763-82.871 86.083zM3116.969 784.622c-23.769 0-43.041-19.272-43.041-43.041s19.272-43.041 43.041-43.041c23.769 0 43.041 19.272 43.041 43.041s-19.272 43.041-43.041 43.041zM3116.969 703.679c-21.199 0-36.617 16.703-36.617 37.902s15.418 37.26 36.617 37.26c21.199 0 35.975-16.703 35.975-37.26 0.642-21.199-14.775-37.902-35.975-37.902zM3139.453 753.144c0 7.709-4.497 12.848-17.345 12.848h-21.199v-48.181h5.782v22.484h10.921l13.491-22.484h7.066l-14.775 22.484c9.636-0.642 16.060 3.212 16.060 12.848zM3116.326 744.151h-8.994v17.345h13.491c5.782 0 12.206-0.642 12.206-8.351 0-10.279-10.279-8.994-16.703-8.994zM2600.472 658.71v-174.093h86.725v194.008c0 62.956-29.551 105.355-109.852 105.355-69.38 0-104.070-45.611-104.070-45.611v37.26h-82.228v-290.369h87.368v162.529c0 36.617 18.63 71.95 66.811 71.95 39.829-0.642 55.247-24.412 55.247-61.029zM1159.548 783.338c-72.592 0-105.997-45.611-105.997-45.611s-21.199 45.611-91.864 45.611c-73.235 0-104.070-44.326-104.070-44.326v36.617h-80.301v-290.369h86.725v175.378c0 34.048 21.842 58.459 59.744 58.459 35.975 0 54.605-16.060 54.605-67.453v-166.384h86.725v176.662c0 28.266 17.987 56.532 59.744 56.532 35.332 0 54.605-17.345 54.605-66.811v-166.384h86.725v193.365c1.927 75.162-41.114 104.713-106.64 104.713zM1997.25 705.606c10.279 0 17.345 0 17.345 0v70.023c0 0-7.066 0-17.345 0-55.89 0-82.871-49.465-82.871-49.465v49.465h-83.513v-290.369h86.725v137.476c0 20.557 5.139 43.041 19.272 59.102 16.060 17.987 36.617 23.769 60.386 23.769zM730.419 775.629c-48.181-4.497-70.665-51.393-70.665-51.393v52.035h-44.969c-52.035 109.21-163.172 184.371-291.654 184.371-178.59-0.642-323.132-145.184-323.132-323.132s144.542-322.489 322.489-322.489c123.343 0 229.982 68.738 284.587 170.238h55.89v133.621c0 56.532 22.484 87.368 75.162 87.368 10.279 0 14.133 0 14.133 0v69.38c0.642 0-7.066 1.285-21.842 0zM323.132 924.668c110.494 0 206.856-64.883 253.109-158.675v-249.255l-199.789 342.404h-95.719l-210.71-350.755c-19.272 38.545-30.193 82.871-30.193 129.124 0 158.675 126.555 287.157 283.302 287.157zM407.93 624.020h-167.026l82.871 149.039 84.156-149.039zM323.132 350.354c-100.858 0-189.511 53.962-239.619 134.906h80.301l41.114 73.235h240.261l41.757-73.877h76.447c-50.75-80.301-139.403-134.263-240.261-134.263z" />
<glyph unicode="&#xe901;" glyph-name="armstrong-tagline" horiz-adv-x="10320" d="M0 550.356v-361.231h88.768v753.299h-88.768zM465.157 696.316c-120.561 0-165.617-94.039-165.617-94.039h-2.165l-0.353 81.398h-75.439l-0.269-494.55h82.405v240.905c0 113.058 50.578 193.214 147.974 193.214 91.168 0 119.135-48.362 119.135-137.197v-296.922h82.473v316.327c0 127.931-58.166 190.864-188.144 190.864zM2823.323 696.316c-120.561 0-165.65-94.039-165.65-94.039h-2.115l-0.386 81.398h-75.405l-0.269-494.55h82.372v240.905c0 113.058 50.612 193.214 148.008 193.214 91.168 0 119.135-48.362 119.135-137.197v-296.922h82.439v316.327c0 127.931-58.166 190.864-188.128 190.864zM1864.858 902.808c-29.947 0-53.348-24.307-53.348-53.281 0-30.854 22.46-53.281 53.348-53.281 30.787 0 53.247 22.427 53.247 53.281 0.017 28.974-23.35 53.281-53.247 53.281zM1823.613 683.676h82.405v-494.55h-82.405v494.55zM2415.912 902.808c-29.914 0-53.281-24.307-53.281-53.281 0-30.854 22.46-53.281 53.281-53.281 30.871 0 53.297 22.427 53.297 53.281 0 28.974-23.367 53.281-53.297 53.281zM2374.701 683.676h82.456v-494.55h-82.456v494.55zM2105.326 602.277h-2.165l0.151 81.398h-76.53c0 0 2.552-32.952 2.552-117.322v-377.212h82.439v240.905c0 134.461 58.283 189.89 140.554 189.89 29.192 0 48.614-3.777 48.614-3.777l0.101 74.851c0 0-23.954 6.261-46.734 6.261-107.099 0.017-148.981-94.995-148.981-94.995zM3541.622 616.781h-2.098c2.098 0-49.487 80.039-179.533 80.039-136.072 0-257.926-98.269-257.926-259.957 0-153.883 94.509-253.579 251.061-253.579 71.729 0 147.336 28.52 186.399 91.94h2.098v-56.537c0-111.849-52.072-206.626-187.003-206.626-117.943 0-172.365 76.648-172.365 76.648l-50.595-65.887c0 0 62.497-86.753 222.96-86.82 150.761 0 269.442 85.326 269.442 289.569v458.543h-82.456v-67.331zM3365.144 259.36c-107.552 0-174.346 77.118-174.346 177.502 0 105.84 68.254 183.881 179.499 183.881 107.065 0 171.307-57.074 171.307-173.171 0.017-107.434-63.353-188.211-176.461-188.211zM1479.538 697.625c-125.295 0-186.164-85.947-186.164-85.947h-2.098v71.88h-82.456v-735.455h82.456v299.356h2.098c-2.065-4.432 48.832-71.142 176.192-71.142 149.082 0 261.351 110.154 261.351 266.84 0 160.413-107.804 254.468-251.379 254.468zM1466.663 250.363c-114.149 0-175.386 71.813-175.386 185.912 0 117.842 78.528 185.291 177.099 185.291 113.343 0 173.741-81.734 173.741-185.291s-68.724-185.912-175.454-185.912zM7024.709 614.448c-105.252 38.324-156.837 70.319-156.837 137.382 0 83.429 74.398 125.765 150.341 125.765 100.317 0 144.952-68.708 144.952-68.708l69.446 63.386c0 0-59.089 87.727-205.804 87.727-129.207 0-256.751-71.545-256.751-212.149 0-107.686 60.65-158.264 188.363-209.48 129.979-52.122 195.195-67.381 195.195-153.866 0-78.763-63.319-128.25-155.545-128.25-113.83 0-170.317 79.417-170.317 79.417l-68.439-62.446c0 0 56.202-99.41 234.895-99.41 127.293 0 256.080 76.48 256.080 218.746-0.017 142.35-100.552 176.562-225.578 221.885zM7613.181 696.299c-125.346 0-186.164-85.964-186.164-85.964h-2.098v71.88h-82.439v-735.455h82.439v299.372h2.098c-2.065-4.448 48.782-71.125 176.142-71.125 149.132 0 261.351 110.137 261.351 266.823 0.017 160.413-107.787 254.468-251.329 254.468zM7600.322 249.037c-114.183 0-175.386 71.796-175.386 185.895 0 117.859 78.545 185.274 177.132 185.274 113.276 0 173.725-81.684 173.725-185.274-0.017-103.523-68.724-185.895-175.47-185.895zM8362.921 485.678c0 139.497-61.271 209.228-207.13 209.228-125.043 0-196.554-76.077-196.554-76.077l44.72-57.645c0 0 58.468 61.053 153.967 61.053 77.151 0 122.559-40.405 122.559-112.235v-14.806h-31.71c-121.535 0-311.711-9.518-311.711-173.305 0-96.187 83.497-146.883 183.864-146.883 75.019 0 129.979 35.923 162.763 86.636h2.082c0 0 3.911-71.662 3.559-73.962h80.979c0 0-7.386 40.959-7.386 130.163v167.833zM8280.482 393.72c-2.098-80.274-50.712-148.998-145.825-148.998-62.329 0-108.794 23.283-108.794 85.595 0 66.592 67.566 95.13 172.247 95.13h82.372v-31.727zM8709.229 251.068c-100.367 0-166.943 82.439-166.943 183.881 0 101.425 55.983 183.847 166.943 183.847 89.523 0 124.725-60.23 124.725-60.23l62.278 55.916c0 0-40.187 80.425-187.003 80.425-152.187 0-255.694-109.919-255.694-259.941 0-157.274 102.465-259.957 255.694-259.957 131.473 0 187.036 79.266 187.036 79.266l-55.564 53.163c0-0.017-43.612-56.369-131.473-56.369zM9195.973 694.923c-145.808 0-253.595-106.763-253.595-259.974 0-153.027 95.096-259.957 250.423-259.957 154.235 0 217.672 97.732 217.672 97.732l-53.046 48.127c0 0-54.993-69.782-158.096-69.782-96.154 0-161.856 72.921-168.202 158.516h399.454v26.422c0 174.749-95.096 258.917-234.61 258.917zM9031.129 479.349c10.609 83.48 67.583 142.921 161.672 142.921 90.883 0 145.825-59.441 148.998-142.921h-310.67zM4881.915 600.28h-2.082l0.101 81.381h-76.48c0 0 2.501-32.935 2.501-117.305v-377.245h82.405v240.955c0 134.461 58.283 189.873 140.571 189.873 29.158 0 48.597-3.743 48.597-3.743l0.101 74.851c0 0-23.921 6.261-46.684 6.261-107.099-0.017-149.032-95.029-149.032-95.029zM4422.214 528.366h172.247v-229.322c-54.959-27.48-125.765-43.343-185.945-43.343-183.897 0-309.612 132.127-309.612 310.687 0 181.765 129.945 310.653 301.135 310.653 76.094 0 153.195-30.636 203.941-85.561l66.542 69.732c-70.756 71.863-165.868 98.269-264.137 98.269-224.034 0-402.627-157.442-402.627-393.092 0-234.576 167.027-393.109 399.421-393.109 97.262 0 194.456 22.209 280.051 69.765v367.744h-260.998v-82.422zM6406.895 249.339c-70.336 0-73.928 52.425-73.928 115.828v247.284h145.825v69.748h-145.825v140.504h-82.405v-140.504h-107.804v-69.748h107.804v-287.202c0-102.516 40.842-150.291 139.782-150.291 63.319 0 92.662 14.554 92.662 14.554l-0.319 73.911c0-0.017-32.885-14.084-75.792-14.084zM6086.472 484.989c0 139.514-61.271 209.245-207.096 209.245-125.094 0-196.554-76.094-196.554-76.094l44.703-57.628c0 0 58.485 61.070 153.95 61.070 77.185 0 122.593-40.422 122.593-112.269v-14.806h-31.71c-121.501 0-311.744-9.518-311.744-173.339 0-96.17 83.53-146.849 183.864-146.849 75.053 0 130.012 35.923 162.78 86.619h2.098c0 0 3.861-71.662 3.559-73.945h80.979c0 0-7.42 40.943-7.42 130.147v167.849zM6004.067 393.049c-2.098-80.29-50.712-148.998-145.825-148.998-62.362 0-108.811 23.283-108.811 85.595 0 66.592 67.583 95.13 172.231 95.13h82.405v-31.727zM5349.976 694.234c-145.876 0-253.595-106.746-253.595-259.974 0-153.010 95.096-259.941 250.439-259.941 154.185 0 217.655 97.732 217.655 97.732l-53.079 48.11c0 0-54.993-69.782-158.063-69.782-96.17 0-161.856 72.921-168.202 158.516h399.421v26.439c0 174.732-95.096 258.9-234.576 258.9zM5185.132 478.661c10.576 83.463 67.549 142.921 161.689 142.921 90.832 0 145.808-59.458 148.948-142.921h-310.636zM955.326 479.483c-64.276 14.403-121.233 28.839-121.233 75.254 0 46.499 45.441 67.381 93.77 67.381 77.487 0 108.055-57.847 108.055-57.847l62.144 47.691c0 0-29.746 84.319-164.928 84.319-108.777 0-186.583-61.523-186.583-145.976 0-102.516 75.573-116.952 176.008-143.727 60.163-16.048 105.638-27.127 105.638-78.226 0-53.885-49.067-76.413-108.811-76.413-97.413 0-126.806 65.048-126.806 65.048l-65.535-48.866c0 0 34.731-91.94 192.341-91.94 97.9 0 197.595 52.089 197.595 162.209 0.034 93.669-73.391 121.35-161.655 141.091zM9722.284 478.778c-64.31 14.403-121.266 28.839-121.266 75.271 0 46.499 45.441 67.348 93.77 67.348 77.504 0 108.055-57.796 108.055-57.796l62.144 47.674c0 0-29.712 84.302-164.912 84.302-108.777 0-186.583-61.523-186.583-145.96 0-102.516 75.573-116.952 176.008-143.727 60.163-16.048 105.672-27.11 105.672-78.192 0-53.919-49.067-76.446-108.794-76.446-97.446 0-126.823 65.048-126.823 65.048l-65.518-48.866c0 0 34.698-91.923 192.341-91.923 97.883 0 197.595 52.089 197.595 162.192-0.017 93.669-73.458 121.367-161.689 141.075zM10247.117 699.623l-45.66-148.83-45.727 148.83h-38.979v-195.9h24.475v164.509h0.772l50.544-164.509h16.703l50.528 164.509h0.722v-164.509h24.508v195.9zM9964.8 678.321h48.262v-174.598h24.559v174.598h48.262v21.302h-121.082z" />
<glyph unicode="&#xe902;" glyph-name="acoustics" d="M511.941 960c-282.723 0-511.941-229.248-511.941-512 0-282.782 229.218-512 511.941-512s511.941 229.218 511.941 512c0.029 282.752-229.189 512-511.941 512zM567.086 223.204c-17.688 8.698-36.812 13.589-56.228 13.618-18.743-0.029-37.222-4.539-54.383-12.651l-19.943 38.862c23.487 11.334 48.819 17.688 74.327 17.659 26.181 0.029 52.158-6.677 76.201-18.596l-19.973-38.891zM626.741 339.526c-36.343 18.508-76.172 27.88-116.147 27.88-39.126 0-78.105-9.079-113.833-26.796l-20.061 39.067c42.083 20.968 87.974 31.687 133.894 31.687 46.769 0 93.509-11.011 136.178-32.741l-20.031-39.096zM686.484 455.995c-54.881 28.026-115.005 42.171-175.304 42.171-59.772 0-119.397-13.999-173.927-41.498l-20.061 39.067c60.855 30.721 127.392 46.359 193.988 46.359 67.064 0 134.157-15.814 195.364-47.003l-20.061-39.096zM746.168 572.347c-73.478 37.486-153.925 56.463-234.548 56.463-80.389 0-160.602-18.889-233.904-56.111l-20.061 39.067c79.598 40.473 166.723 61.031 253.935 61.031 87.417 0 174.835-20.646 254.58-61.353l-20.002-39.096z" />
<glyph unicode="&#xe903;" glyph-name="ac-acoustics" d="M402.062 695.258h-0.615l-28.963-81.619h57.634zM511.941 960c-282.723 0-511.941-229.248-511.941-512 0-282.782 229.218-512 511.941-512 282.752 0 511.941 229.218 511.941 512 0.029 282.752-229.16 512-511.941 512zM377.14 750.081h50.166l83.171-222.395h-50.781l-16.81 49.522h-83.171l-17.425-49.522h-49.551l84.401 222.395zM566.061 150.341c-17.688 8.698-36.841 13.589-56.258 13.618-18.743-0.029-37.222-4.539-54.325-12.651l-19.973 38.891c23.516 11.304 48.819 17.659 74.298 17.659 26.181 0 52.158-6.706 76.201-18.626l-19.943-38.891zM625.716 266.693c-36.373 18.479-76.201 27.821-116.117 27.821-39.155 0-78.134-9.049-113.892-26.767l-20.031 39.067c42.054 20.998 87.945 31.687 133.894 31.687 46.74 0 93.48-11.011 136.149-32.741l-20.002-39.067zM685.459 383.103c-54.881 27.997-115.063 42.113-175.333 42.113-59.772 0-119.368-13.969-173.898-41.468l-20.061 39.067c60.855 30.75 127.422 46.388 193.958 46.388 67.093 0 134.157-15.814 195.393-47.033l-20.061-39.067zM628.117 522.415c-68.88 0-109.323 51.367-109.323 115.532 0 66.010 40.473 117.435 109.323 117.435 48.907 0 89.995-28.671 95.91-80.067h-47.355c-3.075 22.14-24.278 38.95-48.556 38.95-43.928 0-60.445-37.398-60.445-76.289 0-37.076 16.517-74.473 60.445-74.473 29.901 0 46.711 20.588 50.459 49.873h47.326c-4.979-55.496-43.255-90.961-97.785-90.961z" />
<glyph unicode="&#xe904;" glyph-name="stc-acoustics" d="M511.941 960c-282.723 0-511.941-229.248-511.941-512 0-282.782 229.218-512 511.941-512s511.971 229.218 511.971 512c0 282.752-229.218 512-511.971 512zM406.953 749.729h182.449v-41.176h-66.742v-181.512h-48.966v181.541h-66.742v41.146zM207.986 600.988h47.413c0-29.666 23.077-41.176 49.288-41.176 17.161 0 43.343 4.979 43.343 27.763 0 23.985-33.386 28.056-66.127 36.812-33.093 8.727-66.449 21.496-66.449 63.286 0 45.539 43.050 67.386 83.259 67.386 46.476 0 89.233-20.266 89.233-71.75h-47.413c-1.581 26.826-20.588 33.678-43.987 33.678-15.58 0-33.678-6.56-33.678-25.273 0-17.161 10.601-19.328 66.449-33.678 16.224-4.041 66.127-14.321 66.127-64.868 0-40.883-32.126-71.428-92.63-71.428-49.317 0-95.471 24.336-94.827 79.247zM566.032 150.312c-17.688 8.698-36.783 13.618-56.17 13.647-18.743-0.029-37.222-4.539-54.383-12.651l-19.943 38.862c23.487 11.334 48.79 17.688 74.327 17.688 26.152 0 52.128-6.706 76.143-18.655l-19.973-38.891zM625.687 266.693c-36.314 18.479-76.172 27.821-116.117 27.821-39.096 0-78.075-9.049-113.833-26.767l-20.061 39.096c42.083 20.968 87.974 31.658 133.864 31.658 46.74 0 93.538-11.011 136.207-32.741l-20.061-39.067zM685.459 383.103c-54.91 27.997-115.034 42.113-175.333 42.113-59.801 0-119.397-13.969-173.927-41.468l-20.031 39.067c60.855 30.75 127.392 46.388 193.958 46.388 67.064 0 134.157-15.814 195.335-47.033l-20.002-39.067zM714.803 521.741c-68.938 0-109.499 51.484-109.499 115.737 0 66.098 40.561 117.582 109.499 117.582 48.966 0 90.112-28.7 96.057-80.155h-47.413c-3.075 22.14-24.307 39.008-48.643 39.008-43.987 0-60.504-37.427-60.504-76.406 0-37.134 16.517-74.561 60.504-74.561 29.93 0 46.74 20.588 50.518 49.903h47.413c-4.949-55.525-43.343-91.107-97.931-91.107z" />
<glyph unicode="&#xe905;" glyph-name="nrc-acoustics" d="M568.902 681.26c0 21.437-11.831 30.838-33.62 30.838h-53.563v-62.642h53.563c21.759 0 33.62 9.371 33.62 31.804zM511.941 960c-282.723 0-511.941-229.248-511.941-512 0-282.782 229.218-512 511.941-512s511.971 229.218 511.971 512c0 282.752-229.218 512-511.971 512zM432.782 750.081h119.924c39.858 0 65.102-27.704 65.102-61.383 0-26.152-10.572-45.744-35.172-55.701v-0.615c23.956-6.238 30.838-29.637 32.361-52.040 0.908-14.028 0.615-40.151 9.313-52.626h-48.878c-5.916 14.028-5.301 35.523-7.819 53.241-3.397 23.399-12.446 33.62-37.076 33.62h-48.878v-86.89h-48.907v222.395zM244.3 676.574v-148.888h-45.773v222.395h48.585l92.806-149.181h0.615v149.181h45.773v-222.395h-48.907l-92.484 148.888h-0.615zM566.032 150.312c-17.688 8.698-36.783 13.618-56.17 13.647-18.743-0.029-37.222-4.539-54.383-12.651l-19.943 38.862c23.487 11.334 48.79 17.688 74.327 17.688 26.152 0 52.128-6.706 76.143-18.655l-19.973-38.891zM625.687 266.693c-36.314 18.479-76.172 27.821-116.117 27.821-39.096 0-78.075-9.049-113.833-26.767l-20.061 39.096c42.083 20.968 87.974 31.658 133.864 31.658 46.74 0 93.538-11.011 136.207-32.741l-20.061-39.067zM685.459 383.103c-54.91 27.997-115.034 42.113-175.333 42.113-59.801 0-119.397-13.969-173.927-41.468l-20.031 39.067c60.855 30.75 127.392 46.388 193.958 46.388 67.064 0 134.157-15.814 195.335-47.033l-20.002-39.067zM755.978 522.415c-68.821 0-109.294 51.367-109.294 115.532 0 66.010 40.502 117.435 109.294 117.435 48.907 0 90.053-28.671 95.94-80.067h-47.296c-3.134 22.14-24.336 38.95-48.643 38.95-43.928 0-60.387-37.398-60.387-76.289 0-37.076 16.459-74.473 60.387-74.473 29.93 0 46.74 20.588 50.459 49.873h47.355c-4.949-55.496-43.284-90.961-97.814-90.961z" />
<glyph unicode="&#xe906;" glyph-name="cac-acoustics" d="M509.028 695.266h-0.644l-28.933-81.617h57.603zM511.927 960c-282.715 0-511.927-229.241-511.927-511.985 0-282.774 229.212-511.985 511.927-511.985s511.927 229.212 511.927 511.985c0.029 282.744-229.182 511.985-511.927 511.985zM484.077 750.087h50.165l83.169-222.388h-50.78l-16.809 49.521h-83.169l-17.424-49.521h-49.491l84.34 222.388zM186.105 637.956c0 66.008 40.472 117.432 109.291 117.432 48.906 0 90.021-28.67 95.908-80.065h-47.324c-3.104 22.139-24.277 38.949-48.583 38.949-43.927 0-60.414-37.397-60.414-76.287 0-37.074 16.487-74.471 60.414-74.471 29.9 0 46.738 20.587 50.458 49.872h47.353c-4.978-55.495-43.312-90.929-97.811-90.929-68.819-0.029-109.291 51.336-109.291 115.499zM566.045 150.364c-17.688 8.698-36.811 13.617-56.197 13.647-18.742-0.029-37.221-4.539-54.382-12.651l-19.943 38.861c23.486 11.333 48.788 17.688 74.325 17.688 26.181 0 52.127-6.706 76.17-18.654l-19.972-38.89zM625.698 266.713c-36.342 18.479-76.199 27.821-116.114 27.821-39.124 0-78.102-9.049-113.859-26.766l-20.031 39.066c42.053 20.997 87.942 31.686 133.89 31.686 46.738 0 93.477-11.011 136.174-32.74l-20.060-39.066zM685.439 383.149c-54.909 27.967-115.031 42.111-175.269 42.111-59.77 0-119.423-13.969-173.922-41.467l-20.060 39.066c60.854 30.749 127.418 46.387 193.982 46.387 67.033 0 134.095-15.814 195.329-47.031l-20.060-39.066zM735.574 522.427c-68.819 0-109.291 51.365-109.291 115.528 0 66.008 40.501 117.432 109.291 117.432 48.906 0 90.021-28.67 95.966-80.065h-47.353c-3.133 22.139-24.306 38.949-48.613 38.949-43.869 0-60.385-37.397-60.385-76.287 0-37.074 16.517-74.471 60.385-74.471 29.9 0 46.738 20.587 50.458 49.872h47.353c-4.978-55.495-43.312-90.958-97.811-90.958z" />
<glyph unicode="&#xe907;" glyph-name="total-acoustics" d="M511.941 960c-282.723 0-511.941-229.248-511.941-512 0-282.782 229.218-512 511.941-512s511.941 229.218 511.941 512c0.029 282.752-229.189 512-511.941 512zM413.718 793.336h119.924c39.858 0 65.102-27.704 65.102-61.383 0-26.152-10.572-45.744-35.172-55.701v-0.615c23.956-6.238 30.838-29.637 32.361-52.040 0.908-14.028 0.615-40.151 9.313-52.626h-48.878c-5.916 14.028-5.301 35.523-7.819 53.241-3.397 23.399-12.446 33.62-37.076 33.62h-48.878v-86.89h-48.907v222.395zM418.228 433.269v43.548h67.093v67.093h43.577v-67.093h67.093v-43.548h-67.093v-67.123h-43.577v67.123h-67.093zM179.433 793.336h48.585l92.806-149.181h0.615v149.181h45.773v-222.395h-48.907l-92.455 148.888h-0.615v-148.888h-45.803v222.395zM292.739 92.619c-68.85 0-109.294 51.367-109.294 115.561 0 66.010 40.473 117.435 109.294 117.435 48.907 0 90.024-28.671 95.91-80.067h-47.326c-3.104 22.14-24.278 38.95-48.585 38.95-43.928 0-60.416-37.398-60.416-76.289 0-37.076 16.488-74.473 60.416-74.473 29.901 0 46.74 20.588 50.459 49.903h47.355c-4.979-55.555-43.313-91.020-97.814-91.020zM563.953 97.891l-16.81 49.522h-83.113l-17.454-49.522h-49.493l84.372 222.395h50.108l83.171-222.395h-50.781zM732.901 92.619c-68.821 0-109.294 51.367-109.294 115.561 0 66.010 40.502 117.435 109.294 117.435 48.907 0 90.024-28.671 95.969-80.067h-47.355c-3.134 22.14-24.307 38.95-48.614 38.95-43.87 0-60.387-37.398-60.387-76.289 0-37.076 16.517-74.473 60.387-74.473 29.901 0 46.74 20.588 50.459 49.903h47.355c-4.979-55.555-43.284-91.020-97.814-91.020zM736.913 565.699c-68.821 0-109.294 51.367-109.294 115.532 0 66.010 40.502 117.435 109.294 117.435 48.907 0 90.024-28.671 95.91-80.067h-47.296c-3.134 22.14-24.307 38.95-48.614 38.95-43.928 0-60.387-37.398-60.387-76.289 0-37.076 16.459-74.473 60.387-74.473 29.901 0 46.74 20.588 50.459 49.873h47.355c-4.979-55.496-43.313-90.961-97.814-90.961zM549.808 724.515c0 21.437-11.831 30.838-33.62 30.838h-53.563v-62.642h53.563c21.788 0.029 33.62 9.401 33.62 31.804zM505.762 265.492l-28.934-81.619h57.546l-27.968 81.619z" />
<glyph unicode="&#xe908;" glyph-name="access" d="M980.218 654.493h-206.844v71.955h167.865c-91.283 140.454-249.308 233.553-429.297 233.553-150.909 0-286.15-65.688-379.834-169.593l649.584-224.533-23.048-66.625-672.866 232.293c-54.12-81.18-85.777-178.642-85.777-283.543 0-282.782 229.218-512 511.941-512s511.971 229.218 511.971 512c0 73.536-15.785 143.294-43.694 206.493zM643.082 416.899c-13.179-22.755-15.024-42.611-13.179-53.768 1.786-10.631 4.217-30.311 2.431-52.626-1.845-22.257-11.363-61.558-23.897-77.607-12.681-16.078-13.149-33.473-12.359-47.765 1.874-34.088 30.633-80.623 39.36-94.036h-204.97c-0.234 5.447-1.464 20.763-7.878 37.017-7.263 18.596-12.3 37.808-24.131 57.488 13.296-4.627 28.963-8.317 46.74-8.786 0.088 0 0.146 0 0.234 0 3.836 0 7.029 3.075 7.146 6.941 0.059 3.983-3.016 7.234-6.941 7.351-32.214 0.703-57.546 13.266-70.842 21.291-20.148 17.63-46.623 36.256-55.028 47.267-49.932 65.278-53.446 86.363-71.486 128.652-18.186 42.259-53.475 70.022-60.123 105.018-2.577 13.471 2.87 19.68 8.024 23.311 7.321-7.116 15.697-15.844 23.897-26.708 11.831-15.697 30.808-39.653 40.18-55.76 7.849-13.53 24.366-36.578 31.189-46.008l-2.958-4.159c-2.343-3.251-1.611-7.731 1.669-10.016 1.259-0.908 2.694-1.347 4.159-1.347 2.226 0 4.422 1.025 5.828 3.016l5.974 8.346 3.016 4.276-3.016 4.129c-0.088 0.059-24.307 33.093-33.473 48.878-10.367 17.776-29.461 41.732-41.117 57.253-13.354 17.688-27.118 30.252-35.582 38.218-7.351 13.354-11.334 22.491-13.823 31.863-3.866 14.028-6.15 39.067 3.631 47.765 2.87 2.606 6.267 3.339 9.635 3.397 9.284-14.379 33.942-52.655 38.628-61.617 7.907-15.111 19.826-31.453 33.268-50.664 15.229-21.583 54.12-64.194 58.923-74.825 1.786-3.749 3.046-6.443 3.954-8.376l-4.276-3.046c-3.251-2.314-4.012-6.794-1.669-10.016 1.376-1.962 3.544-3.016 5.799-3.016 1.435 0 2.929 0.439 4.217 1.347l19.094 13.706 0.996 0.674h0.029l0.293 0.205c3.104 2.284 3.983 6.648 1.786 9.811-2.196 3.251-6.56 4.188-9.811 2.021l-4.686-3.046c-0.732 1.581-1.64 3.485-2.753 5.799-7.79 15.639-45.656 56.082-60.065 76.875-13.589 19.328-25.215 35.436-32.331 49.112-4.832 9.225-24.6 40.004-35.582 57.019 0.029 9.928 6.443 31.804 26.767 19.856 8.786-14.291 32.771-53.3 39.653-62.847 7.936-10.924 16.136-31.277 31.394-51.806 12.154-16.195 47.501-50.488 58.542-64.399 3.251-3.954 8.551-9.108 12.476-12.827-2.929-1.142-4.803-4.041-4.481-7.321 0.351-3.749 3.456-6.56 7.146-6.56 0.234 0 0.469 0.029 0.674 0.029l26.24 2.46c3.485 0.322 6.238 3.075 6.501 6.589 0.322 3.485-1.962 6.648-5.359 7.497l-17.278 4.364c-3.192 2.929-11.509 10.66-14.76 14.76-12.212 15.229-47.531 49.639-58.22 64.018-14.086 18.831-21.701 38.101-31.277 51.543-2.255 3.134-7.204 10.836-12.827 19.797 0.293 4.774 2.958 9.518 13.266 8.259 19.065-2.401 29.959-24.658 65.658-71.72 35.641-47.121 95.588-89.057 107.507-102.265 3.983-4.334 66.947-64.75 84.401-64.223 17.425 0.527 14.379 33.473 35.084 50.664 27.323 22.696 53.622 22.696 62.671 13.969 3.836-3.719 4.949-12.798-1.904-24.688z" />
<glyph unicode="&#xe909;" glyph-name="airquality" d="M512 960c-282.761 0-512-229.239-512-512 0-282.795 229.239-512 512-512s512 229.205 512 512c0 282.761-229.205 512-512 512zM618.394 225.007c-48.913 0-97.348 33.417-144.213 65.707-36.113 24.883-73.455 50.62-98.167 50.62-51.644 0-76.698-38.946-76.937-39.322l-49.732 30.14c1.673 2.731 41.779 67.311 126.669 67.311 42.837 0 85.777-29.559 131.174-60.894 39.561-27.238 80.418-55.433 111.206-55.433 63.727 0 114.654 49.152 115.166 49.664l41.131-41.131c-2.731-2.697-67.721-66.662-156.297-66.662zM618.394 360.721c-48.913 0-97.348 33.417-144.213 65.707-36.113 24.883-73.455 50.654-98.167 50.654-51.644 0-76.698-38.912-76.937-39.322l-49.732 30.14c1.673 2.765 41.779 67.345 126.669 67.345 42.837 0 85.777-29.594 131.174-60.928 39.561-27.238 80.418-55.398 111.206-55.398 63.727 0 114.654 49.152 115.166 49.63l41.131-41.131c-2.731-2.731-67.721-66.697-156.297-66.697zM618.394 496.469c-48.913 0-97.348 33.417-144.213 65.707-36.113 24.883-73.421 50.62-98.167 50.62-51.644 0-76.698-38.912-76.937-39.287l-49.732 30.14c1.673 2.731 41.779 67.311 126.669 67.311 42.837 0 85.777-29.559 131.174-60.894 39.561-27.238 80.418-55.433 111.206-55.433 63.727 0 114.654 49.152 115.166 49.664l41.131-41.131c-2.731-2.731-67.721-66.697-156.297-66.697z" />
<glyph unicode="&#xe90a;" glyph-name="anti-microbial" d="M448.45 590.621c14.672-0.205 34.791 7.614 51.396 23.633 17.396 16.634 25.976 37.281 25.771 52.070 0 8.903-2.519 15.17-6.794 19.709-4.774 4.92-11.48 7.731-21.261 7.819-0.117 0-0.234 0-0.351 0-14.701 0-34.469-7.819-50.986-23.809-17.366-16.429-25.976-37.046-25.83-51.953 0.059-8.844 2.577-15.17 7.029-19.885 4.422-4.715 11.246-7.585 21.027-7.585zM359.949 525.343c-0.908 0.381-1.786 0.556-3.368 0.556-0.469 0.117-0.966 0.146-1.523 0.146-13.706 0-48.409-32.126-65.16-81.824-8.346-23.077-12.212-45.686-12.212-64.194-0.293-27.792 9.518-42.406 14.789-42.991 1.113-0.439 2.343-0.615 3.749-0.615 12.476-2.636 49.258 29.871 66.566 81.502h-0.029c8.346 23.253 12.271 45.978 12.271 64.37 0.264 27.851-9.459 42.318-15.082 43.050zM446.664 383.455c-11.363 11.509-15.258 28.085-13.061 46.066-9.957 15.053-13.881 31.57-8.903 46.857 0.293 0.879 0.879 1.611 1.23 2.489l-16.019 16.019c0.351-4.159 0.556-8.346 0.586-12.593 0-23.311-4.774-49.522-14.291-76.26v-0.059c-22.14-57.722-56.023-102.382-99.922-105.018-5.271 0-10.484 0.908-15.58 2.694-29.461 11.831-38.101 43.313-38.364 76.348 0 23.311 4.656 49.581 14.291 76.26 20.353 52.597 50.342 94.153 88.882 103.027l-83.259 83.259c-44.573-57.078-67.035-125.635-67.093-194.515 0.059-81.15 30.867-161.949 92.865-223.976 61.91-61.968 142.709-92.718 223.947-92.806 68.909 0.088 137.467 22.521 194.632 67.093l-181.512 181.424c-29.491-14.701-60.416-14.467-78.427 3.69zM770.914 629.922c-7.761-12.271-18.245-24.014-31.716-33.766-41.117-29.813-91.107-30.838-111.812-2.284-20.646 28.495-4.246 75.908 36.724 105.575 7.292 5.301 14.906 9.313 22.55 12.798-52.831 35.026-113.687 52.538-174.747 52.568-68.909-0.059-137.408-22.462-194.515-67.064l68.938-68.909c3.104 23.721 15.258 47.413 35.494 66.713 22.345 21.466 49.581 33.561 75.762 33.678 17.015 0.088 34.323-5.623 46.798-18.713 11.656-12.095 16.839-28.261 16.751-44.221-0.176-27.148-13.559-55.145-36.783-77.607l-0.059-0.059c-19.533-18.567-42.611-29.491-65.424-32.331l40.121-40.121c29.373 14.76 60.328 14.467 78.31-3.778 11.334-11.48 15.258-28.026 13.061-45.949 9.957-15.082 13.881-31.628 8.844-46.916-0.293-0.849-0.849-1.552-1.171-2.372l163.736-163.706c44.543 57.078 67.005 125.577 67.005 194.427-0.059 63.989-19.504 127.627-57.868 182.039zM511.971 960c-282.752 0-511.971-229.248-511.971-511.971 0-282.782 229.218-512 511.971-512 282.723 0 511.941 229.218 511.941 512 0 282.723-229.218 511.971-511.941 511.971zM791.267 168.879l-0.059-0.059c-76.992-76.875-178.144-115.649-279.033-115.649-0.059 0-0.176 0-0.234 0-100.918-0.059-202.276 38.598-279.238 115.707-76.992 76.992-115.649 178.261-115.59 279.15-0.059 100.918 38.598 202.188 115.59 279.121 76.963 77.109 178.261 115.707 279.18 115.678 100.947 0.059 202.217-38.657 279.209-115.649 77.050-76.933 115.766-178.261 115.707-279.238 0.059-100.86-38.598-202.071-115.532-279.062z" />
<glyph unicode="&#xe90b;" glyph-name="c2c" d="M511.985 960c-282.76 0-511.985-229.225-511.985-511.985s229.225-511.985 511.985-511.985c282.76 0 512.015 229.225 512.015 511.985s-229.254 511.985-512.015 511.985zM273.33 388.27c15.815 0 33.972 5.828 42.758 10.514l6.443 2.958 21.086-59.188c-4.1-2.958-7.614-8.2-35.144-16.986-13.472-4.129-27.529-6.472-42.758-6.472-39.83 0-72.045 12.33-96.675 36.315-24.601 24.63-36.901 55.644-36.901 92.574 0 36.901 12.3 67.945 36.315 91.989 24.601 24.601 56.816 36.93 97.26 36.93 30.458 0 58.573-9.372 69.702-16.43l8.2-5.857-21.086-60.359c-14.643 8.815-31.044 13.472-49.201 13.472-33.416 0-56.23-23.986-56.23-59.744s22.814-59.715 56.23-59.715zM640.582 324.953h-260.708v61.531l130.647 123.618c18.743 16.986 24.601 28.701 24.601 49.23 0 23.429-18.158 41.587-48.030 41.587-26.358 0-45.716-9.957-72.045-31.629l-44.545 67.945c2.343 2.343 5.272 5.301 21.672 16.43 8.2 5.272 16.986 9.957 26.358 14.057 18.743 8.786 49.787 16.4 80.245 16.4 42.758 0 76.76-11.129 101.946-32.801s37.487-48.615 37.487-80.245c0-39.273-13.472-72.074-41.001-97.26l-81.446-75.559h124.789v-73.304zM856.687 325.568c-13.442-4.129-27.5-6.472-42.787-6.472-39.8 0-72.015 12.33-96.675 36.315-24.601 24.63-36.901 55.644-36.901 92.574 0 36.901 12.3 67.945 36.315 91.989 24.601 24.601 56.845 36.93 97.231 36.93 30.487 0 58.631-9.372 69.731-16.43l8.229-5.857-21.116-60.359c-14.643 8.815-31.073 13.472-49.201 13.472-33.416 0-56.289-23.986-56.289-59.744s22.873-59.744 56.289-59.744c15.785 0 33.972 5.828 42.729 10.514l6.472 2.958 21.116-59.188c-4.071-2.929-7.614-8.171-35.144-16.957z" />
<glyph unicode="&#xe90c;" glyph-name="chemical" d="M511.927 960c-282.715 0-511.927-229.241-511.927-511.956 0-282.774 229.212-512.015 511.927-512.015s511.956 229.241 511.956 512.015c0 282.715-229.212 511.956-511.956 511.956zM457.457 468.045v203.5h149.030l-39.974-54.499v-149.001l55.875-69.024h-220.836l55.905 69.024zM688.25 224.455h-352.588c-19.884 0-36.020 16.136-36.020 35.991 0 8.112 2.694 15.609 7.263 21.671l70.957 87.62h268.248l70.928-87.62c4.51-6.062 7.204-13.559 7.204-21.671 0-19.855-16.077-35.991-35.991-35.991z" />
<glyph unicode="&#xe90d;" glyph-name="color" d="M484.647 257.439c0-17.241-13.977-31.218-31.218-31.218s-31.218 13.977-31.218 31.218c0 17.241 13.977 31.218 31.218 31.218s31.218-13.977 31.218-31.218zM352.423 366.322c-6.121 12.974-20.295 20.705-34.176 19.563-11.421-0.732-29.901 2.401-33.649-12.359-4.129-15.902-19.504-20.090-28.934-31.98-0.791-2.694-1.611-5.389-2.401-8.112-0.966-9.108 0.791-19.036 4.803-27.294 4.041-8.229 11.978-17.103 22.14-16.576 6.414-0.176 12.856-0.293 19.27-0.469 3.954-0.586 8.317-3.661 12.271-4.246 7.673 0.059 16.371 1.611 23.604 4.188 8.229 4.012 11.89 12.359 13.266 18.977 2.431 8.112-1.611 16.371-0.205 22.989 2.987 12.095 9.899 23.546 4.012 35.318zM605.187 665.065c-12.915 7.936-29.403 7.439-38.159 20.178-8.581 12.534-24.893 3.251-35.875 0.059-13.413-3.661-24.073-15.785-25.391-30.076-1.552-13.091 8.932-21.437 15.844-31.746 3.573-5.769 2.636-14.936 7.673-21.73 3.573-5.769 9.84-12.359 18.977-13.266 7.673 0.059 16.371 1.611 23.575 4.188 3.514 1.874 6.589 6.238 10.104 8.171 5.974 2.284 11.978 4.627 17.952 6.97 9.723 2.987 14.145 14.028 15.141 23.165 0.937 9.108-0.791 19.036-4.803 27.294-1.728 2.284-3.397 4.51-5.037 6.794zM276.69 453.33c7.673 0.059 16.371 1.611 23.575 4.188 3.514 1.874 6.589 6.238 10.104 8.171 5.974 2.284 11.978 4.627 17.952 6.97 9.694 3.046 14.145 14.028 15.141 23.165 0.937 9.108-0.791 19.036-4.803 27.294-1.728 2.284-3.368 4.569-5.037 6.794-12.915 7.936-25.537 6.706-33.561 18.421-8.639 12.534-29.461 5.037-40.443 1.816-13.413-3.661-24.073-15.785-25.391-30.076-1.552-13.032 8.932-21.437 15.844-31.746 3.573-5.769 2.636-14.936 7.673-21.73 3.514-5.711 9.781-12.3 18.948-13.266zM445.258 593.579c15.316 21.906 16.634 50.957-1.435 71.779-12.066 13.911-24.424 11.656-41.556 8.698-7.761-1.376-16.781-4.569-24.278-7.497-8.464-6.296-5.74-21.847-16.371-25.273-11.831-5.33-18.245-14.409-21.525-22.989-6.296-18.772 14.614-37.456 34.323-40.385s39.36 3.719 59.508 7.321c4.393 2.343 8.786 4.744 11.334 8.346zM710.732 531.464c7.673 0.059 16.371 1.611 23.604 4.129 3.514 1.933 6.56 6.296 10.074 8.171 5.974 2.343 11.978 4.686 17.981 7.029 9.694 2.987 14.145 14.028 15.111 23.165 0.966 9.108-0.791 19.036-4.803 27.294-1.699 2.284-3.368 4.51-5.037 6.794-12.915 7.936-29.286 7.204-38.159 20.148-8.581 12.593-24.893 3.309-35.846 0.117-13.442-3.661-24.102-15.785-25.42-30.076-1.552-13.091 8.932-21.496 15.844-31.804 3.573-5.769 2.636-14.877 7.673-21.671 3.544-5.799 9.84-12.388 18.977-13.296zM511.941 960c-282.723 0-511.941-229.248-511.941-512 0-282.782 229.218-512 511.941-512s511.941 229.218 511.941 512c0.029 282.752-229.189 512-511.941 512zM767.488 338.12c-73.009-14.936-77.578 6.121-130.555 3.075-87.652-5.037-115.883-49.141-114.009-100.332 1.289-34.821-8.054-65.6-105.399-82.761-147.804-26.093-213.873 100.889-239.79 248.195-21.671 123.029 112.691 296.809 292.241 328.496 179.579 31.628 344.955-54.969 372.513-211.296 12.212-69.026 13.501-167.309-75-185.378zM790.067 462.145c-12.915 7.936-27.851 8.874-38.13 20.148-8.61 12.593-24.922 3.309-35.846 0.117-13.442-3.661-24.131-15.785-25.449-30.076-1.523-13.091 8.932-21.496 15.844-31.804 3.602-5.769 2.636-14.877 7.673-21.671 3.602-5.769 9.869-12.359 18.977-13.266 7.673 0.059 16.371 1.611 23.604 4.129 3.514 1.933 6.589 6.296 10.104 8.171 5.974 2.343 11.949 4.686 17.952 7.029 9.723 2.987 14.145 14.028 15.111 23.165 0.966 9.108-0.791 19.036-4.803 27.294-1.669 2.226-3.397 4.451-5.037 6.765z" />
<glyph unicode="&#xe90e;" glyph-name="def" d="M282.944 314.157h-31.865v-128.015h39.831c25.919 0 50.667 15.903 50.667 60.859 0.029 40.944-14.175 67.156-58.633 67.156zM313.022 580.408l44.019-55.060 46.889 179.355c1.611 6.092 7.146 10.28 13.384 10.016 6.209-0.176 11.51-4.803 12.681-10.895l32.567-174.23 39.216 254.067c0.966 6.443 6.531 11.246 13.091 11.246 6.59 0.088 12.184-4.627 13.326-11.071l49.32-288.802 31.279 181.727c1.084 6.18 6.355 10.807 12.594 11.158 6.18 0.322 11.715-3.749 13.56-9.753l48.265-169.925 35.701 69.879c2.167 4.452 6.736 7.263 11.891 7.263l274.012-0.029c-60.097 215.964-257.669 374.643-492.788 374.643s-432.719-158.649-492.817-374.613h283.354c3.983 0 7.908-1.845 10.456-4.979zM1011.67 558.677h-272.752l-47.299-92.87c-2.46-4.891-7.673-7.82-13.209-7.263-5.447 0.498-10.075 4.335-11.568 9.636l-41.646 146.231-34.559-200.794c-1.084-6.443-6.648-11.071-13.267-11.071-6.472 0-12.008 4.627-13.091 11.071l-48.646 284.467-38.542-250.113c-1.054-6.443-6.531-11.217-12.974-11.363-6.56-0.059-12.242 4.54-13.414 10.924l-36.023 192.505-38.396-147.256c-1.289-4.92-5.155-8.669-10.163-9.723-4.979-1.054-10.075 0.791-13.267 4.774l-56.759 70.787h-283.794c-7.849-35.672-12.301-72.603-12.301-110.618 0-282.798 229.231-512 512.029-512 282.769 0 511.971 229.202 511.971 512 0 38.044-4.452 75.005-12.33 110.677zM294.044 148.45h-87.657v203.341h87.657c52.659 0 92.255-33.007 92.255-100.514 0-58.897-30.195-102.828-92.255-102.828zM615.062 148.538h-154.285v203.224h152.001v-37.634h-107.279v-43.462h98.464v-34.793h-98.464v-49.759h109.564v-37.576zM844.41 314.157h-98.229v-46.918h85.167v-34.735h-85.167v-83.967h-44.663v203.224h142.893v-37.605z" />
<glyph unicode="&#xe90f;" glyph-name="dirt-resist" d="M511.927 960c-282.715 0-511.927-229.241-511.927-511.985 0-282.774 229.212-511.985 511.927-511.985s511.927 229.212 511.927 511.985c0.029 282.744-229.182 511.985-511.927 511.985zM143.115 766.311h726.291v-73.212h-726.291v73.212zM182.795 237.135c-20.411 0-36.928 16.517-36.928 36.957 0 20.353 16.517 36.899 36.928 36.899s36.928-16.517 36.928-36.899c0-20.411-16.517-36.957-36.928-36.957zM211.992 354.596c0 14.935 12.153 27.118 27.118 27.118 14.994 0 27.118-12.182 27.118-27.118 0-14.994-12.153-27.176-27.118-27.176s-27.118 12.182-27.118 27.176zM271.85 150.862c-20.411 0-36.928 16.517-36.928 36.957s16.517 36.957 36.928 36.957 36.928-16.517 36.928-36.957-16.517-36.957-36.928-36.957zM310.828 363.88c0 14.467 11.714 26.21 26.21 26.21 14.467 0 26.21-11.714 26.21-26.21s-11.743-26.239-26.21-26.239c-14.496-0.029-26.21 11.743-26.21 26.239zM347.083 241.118c-14.496 0-26.21 11.772-26.21 26.239s11.714 26.21 26.21 26.21c14.467 0 26.21-11.714 26.21-26.21s-11.743-26.239-26.21-26.239zM438.422 166.91c-20.411 0-36.928 16.517-36.928 36.957s16.517 36.957 36.928 36.957 36.928-16.517 36.928-36.957-16.517-36.957-36.928-36.957zM466.155 302.352c-20.411 0-36.928 16.517-36.928 36.957s16.517 36.957 36.928 36.957 36.928-16.517 36.928-36.957-16.517-36.957-36.928-36.957zM560.305 148.080c-14.994 0-27.118 12.182-27.118 27.176 0 14.935 12.124 27.118 27.118 27.118s27.118-12.182 27.118-27.118c0-14.994-12.124-27.176-27.118-27.176zM568.476 281.355c-14.467 0-26.21 11.772-26.21 26.239s11.714 26.21 26.21 26.21 26.21-11.714 26.21-26.21-11.743-26.239-26.21-26.239zM655.686 160.965c-14.496 0-26.239 11.772-26.239 26.239s11.714 26.21 26.239 26.21c14.467 0 26.239-11.714 26.239-26.21s-11.772-26.239-26.239-26.239zM571.931 563.279l-149.704-149.645-51.98 51.951 149.733 149.674h103.932l160.832-160.773 42.521 42.521v-137.023h-137.082l42.551 42.551-160.803 160.744zM738.649 249.962c-14.408 0-26.122 11.655-26.122 26.093s11.685 26.151 26.122 26.151 26.093-11.714 26.093-26.151-11.685-26.093-26.093-26.093zM829.022 129.689c-20.411 0-36.957 16.517-36.957 36.957s16.517 36.957 36.957 36.957c20.382 0 36.928-16.517 36.928-36.957s-16.546-36.957-36.928-36.957zM854.588 277.636c-14.467 0-26.21 11.772-26.21 26.239s11.714 26.21 26.21 26.21 26.21-11.714 26.21-26.21-11.743-26.239-26.21-26.239z" />
<glyph unicode="&#xe910;" glyph-name="durability" d="M501.091 558.219h-48.323v-225.535h48.323c32.215 0 59.276 10.309 80.538 30.282 21.936 20.618 32.889 48.323 32.889 82.471-0.029 72.191-48.352 112.782-113.426 112.782zM511.985 960c-282.76 0-511.985-229.225-511.985-511.985 0-282.79 229.225-512.015 511.985-512.015 282.79 0 512.015 229.225 512.015 512.015 0 282.76-229.225 511.985-512.015 511.985zM655.752 306.239c-36.725-36.081-86.366-54.121-147.574-54.121h-148.863v386.639h148.863c61.209 0 110.849-18.040 147.574-54.795 36.725-36.081 55.41-82.471 55.41-138.525s-18.685-102.444-55.41-139.198z" />
<glyph unicode="&#xe911;" glyph-name="fire" d="M511.941 960c-282.752 0-511.941-229.248-511.941-512 0-282.782 229.189-512 511.941-512 282.723 0 511.941 229.218 511.941 512 0.029 282.752-229.189 512-511.941 512zM795.69 306.111c-15.961-101.797-72.423-163.267-195.803-185.173l1.991 0.703c0 0-65.863-13.442-65.863 54.735 0 37.281 58.981 57.985 87.915 96.027 28.876 38.042 34.557 106.834-39.799 165.259 4.451-160.602-232.44-76.992-236.218-226.553-0.849-33.825 15.024-64.135 36.871-88.267-67.035 16.224-115.356 49.786-139.37 97.462-38.481 76.406-21.583 201.046 58.659 261.696 99.922 75.498 41.029 143.177 41.029 143.177s117.172-28.612 88.53-143.177c-12.974-51.865 39.741-66.683 56.99-9.899s-0.966 100.098-20.558 159.255c-39.418 118.958 79.071 144.085 79.071 144.085s-31.599-65.541 53.622-135.329c149.357-122.267 208.894-232.205 192.933-334.002z" />
<glyph unicode="&#xe912;" glyph-name="humidity" d="M511.941 960c-282.752 0-511.941-229.248-511.941-512 0-282.782 229.189-511.971 511.941-511.971 282.723 0 511.941 229.189 511.941 511.971 0.029 282.752-229.189 512-511.941 512zM343.813 138.451c-54.295 0-98.282 43.987-98.282 98.253 0 13.208 2.636 25.859 7.351 37.339h-1.201c10.455 26.093 90.522 200.196 90.522 235.017 0-30.076 59.918-164.321 82.878-217.006 10.748-15.726 17.015-34.791 17.015-55.379 0-54.237-43.987-98.224-98.282-98.224zM417.788 572.991c0 13.208 2.636 25.801 7.38 37.281h-1.23c10.426 26.152 90.551 200.255 90.551 235.075 0-30.135 59.889-164.38 82.82-217.065 10.748-15.726 17.073-34.791 17.073-55.32 0-54.325-44.016-98.312-98.282-98.312s-98.312 44.016-98.312 98.341zM680.099 138.451c-54.295 0-98.282 43.987-98.282 98.253 0 13.208 2.636 25.859 7.351 37.339h-1.201c10.426 26.093 90.522 200.196 90.522 235.017 0-30.076 59.889-164.321 82.878-217.006 10.748-15.726 17.015-34.791 17.015-55.379-0.029-54.237-44.016-98.224-98.282-98.224z" />
<glyph unicode="&#xe913;" glyph-name="humidity4" d="M511.927 960c-282.715 0-511.927-229.241-511.927-511.985s229.212-511.985 511.927-511.985 511.956 229.241 511.956 511.985c0 282.744-229.212 511.985-511.956 511.985zM256.242 448.22c-54.265 0-98.25 43.986-98.25 98.309 0 13.207 2.606 25.8 7.35 37.279h-1.259c10.455 26.151 90.548 200.249 90.548 235.069 0-30.134 59.858-164.375 82.847-217.059 10.748-15.726 17.073-34.79 17.073-55.319-0.029-54.294-44.015-98.28-98.309-98.28zM428.495 112.031c-54.294 0-98.28 43.986-98.28 98.25 0 13.207 2.606 25.858 7.35 37.338h-1.201c10.455 26.093 90.519 200.191 90.519 235.010 0-30.075 59.887-164.317 82.876-217 10.748-15.726 17.044-34.79 17.044-55.377-0.029-54.235-44.015-98.221-98.309-98.221zM502.468 546.558c0 13.207 2.606 25.8 7.35 37.279h-1.23c10.425 26.151 90.519 200.249 90.519 235.069 0-30.134 59.887-164.375 82.876-217.059 10.748-15.726 17.044-34.79 17.044-55.319 0-54.323-44.015-98.309-98.28-98.309s-98.28 43.986-98.28 98.338zM764.771 112.031c-54.294 0-98.28 43.986-98.28 98.25 0 13.207 2.606 25.858 7.35 37.338h-1.201c10.455 26.093 90.519 200.191 90.519 235.010 0-30.075 59.917-164.317 82.847-217 10.748-15.726 17.044-34.79 17.044-55.377-0.029-54.235-44.015-98.221-98.28-98.221z" />
<glyph unicode="&#xe914;" glyph-name="impact-resist" d="M390.062 381.467l-21.846-1.991c1.201-13.207 4.129-26.356 8.58-38.596l0.469-1.259 20.352 8.287c-3.983 10.923-6.53 22.168-7.555 33.559zM392.2 309.575c7.38-11.567 16.282-22.022 26.414-31.158l14.73 16.311c-8.697 7.848-16.34 16.809-22.636 26.707l-18.507-11.86zM399.608 444.281l-20.294 8.346c-5.213-12.651-8.756-25.916-10.484-39.475l21.787-2.811c1.464 11.626 4.51 23.076 8.99 33.94zM315.007 317.862c-4.070 11.216-9.429 21.963-15.93 31.919l-18.39-12.006c5.564-8.522 10.191-17.717 13.676-27.41l1.493-4.246 20.85 6.852-1.698 4.89zM234.242 381.057c10.308-5.769 19.737-12.826 28.113-20.997l15.374 15.725c-9.781 9.488-20.792 17.717-32.769 24.423l-10.718-19.152zM961.098 284.361l26.824 27 13.5-13.441c14.583 47.469 22.49 97.867 22.49 150.139-0.029 282.736-229.264 511.941-511.971 511.941-282.765 0-511.941-229.205-511.941-511.941 0-282.765 229.176-512 511.941-512 215.676 0 399.901 133.564 475.278 322.357l-26.121 25.946zM176.846 744.002h644.305v-73.21h-644.305v73.21zM468.923 271.828c-4.129 1.816-8.229 3.719-12.182 5.945l-10.894-19.093c4.041-2.284 8.317-4.129 12.534-6.062-15.14-23.339-37.249-42.374-65.391-52.623s-57.338-9.898-83.928-1.728c1.347 2.87 2.958 5.593 4.129 8.58l-20.352 8.17c-1.23-3.046-2.782-5.886-4.217-8.756-29.284 14.583-53.385 39.738-65.479 72.917-25.008 68.817 10.425 144.809 79.213 169.876 68.817 25.038 144.809-10.396 169.876-79.213 12.036-33.149 9.752-67.997-3.309-98.013zM489.832 422.699l-26.912 26.941 82.815 82.844 26.941-26.883-82.844-82.903zM670.133 573.247l-14.964 14.847-41.056-41.115-26.941 26.912 67.939 67.939 41.876-41.583-26.853-27zM794.824 449.406l-83.166 82.551 26.824 27.029 83.225-82.522-26.883-27.058zM919.515 325.652l-83.108 82.522 26.824 27 83.108-82.522-26.824-27zM301.8 277.831c0.469-4.334 0.644-8.697 0.644-13.090 0.029-7.262-0.615-14.642-1.816-21.904l21.612-3.66c1.435 8.463 2.167 17.102 2.138 25.623 0 5.095-0.264 10.132-0.761 15.228l-21.817-2.196z" />
<glyph unicode="&#xe915;" glyph-name="light-reflectance" d="M511.927 959.941c-282.715 0-511.927-229.212-511.927-511.927 0-282.744 229.212-511.927 511.927-511.927 282.744 0 511.927 229.182 511.927 511.927 0 282.715-229.182 511.927-511.927 511.927zM583.879 148.929l-26.649-5.506c-5.33-22.374-25.273-39.095-49.286-39.095-16.692 0-31.305 8.141-40.559 20.558l-22.051-4.539c-0.908-0.205-1.816-0.322-2.665-0.322-6.121 0-11.538 4.276-12.827 10.455-1.435 7.058 3.104 13.969 10.191 15.433l138.517 28.582c7.145 1.581 13.998-3.046 15.492-10.162 1.435-7.028-3.104-13.94-10.162-15.404zM440.033 185.272l138.517 28.64c7.028 1.435 13.998-3.075 15.462-10.191 1.435-7.028-3.075-13.969-10.191-15.433l-138.488-28.611c-0.879-0.176-1.816-0.293-2.665-0.293-6.121 0-11.538 4.246-12.827 10.455-1.435 7.058 3.104 13.969 10.191 15.433zM440.033 224.66l7.497 1.552v24.804h120.214l10.777 2.226c7.145 1.611 13.998-3.075 15.462-10.191 1.435-7.028-3.075-13.969-10.191-15.404l-138.488-28.582c-0.908-0.234-1.816-0.322-2.665-0.322-6.121 0-11.538 4.276-12.827 10.425-1.406 7.116 3.133 14.027 10.22 15.492zM627.045 413.4c-27.469-18.537-46.036-50.633-46.036-86.244l0.264-42.082-16.048-16.019h-107.27l-15.404 15.345-0.059 42.756c0 36.020-17.688 67.999-45.772 86.478-55.085 37.045-91.251 100.095-91.251 171.55 0 114.035 92.423 206.487 206.458 206.487 113.976 0 206.37-92.452 206.37-206.487 0-71.221-36.401-134.681-91.251-171.784zM461.411 673.654l31.774-19.972c15.462 24.541 40.12 42.551 69.258 49.14l-8.317 36.547c-38.949-8.815-72.040-32.916-92.716-65.715z" />
<glyph unicode="&#xe916;" glyph-name="peaked" d="M1024.059 448.029c0 282.736-229.235 511.971-512.029 511.971-282.766 0-512.029-229.235-512.029-511.971 0-108.028 33.647-208.092 90.78-290.731l0.381 329.649c0 0 0.937 0.937 2.343 2.313 0.703 0.732 1.611 1.611 2.694 2.723 20.411 20.411 93.767 93.767 164.078 164.107 5.915 5.915 11.801 11.801 17.658 17.687 3.368 3.338 6.706 6.706 10.044 10.015 4.685 4.685 9.283 9.312 13.881 13.881 2.958 2.958 5.886 5.886 8.756 8.785 12.299 12.27 23.984 23.984 34.701 34.701 11.919 11.919 22.636 22.636 31.656 31.627 17.951 17.98 29.050 29.020 29.050 29.020 28.318 28.376 66.065 43.926 106.213 43.926 40.178 0 77.925-15.608 106.213-43.926l315.007-315.329v-328.946c56.987 82.493 90.604 182.527 90.604 290.496zM512.146 680.075c-48.494-48.494-307.803-307.803-307.803-307.803-11.948-11.948-25.682-44.834-25.682-61.877v-250.465c89.638-77.075 205.925-123.9 333.397-123.9s243.759 46.884 333.397 123.9c0 125.482 0 250.407 0 250.407 0 16.985-13.734 49.871-25.682 61.935-0.029 0-259.046 259.192-307.628 307.803z" />
<glyph unicode="&#xe917;" glyph-name="recycle-circle" d="M512.029 960c-282.766 0-512.029-229.235-512.029-512s229.264-512 512.029-512c282.766 0 512.029 229.235 512.029 512s-229.235 512-512.029 512zM234.125 252.442c0 0-61.408 107.648-68.29 119.888-7.936 14.173-10.454 20.294-1.406 35.697 6.062 10.191 51.95 88.027 56.928 98.101l-22.695 12.914 138.044 33.237 37.718-135.731-23.896 14.115c0 0-96.783-165.396-101.322-173.185-5.681-9.664-12.036-10.337-15.081-5.037zM489.334 147.488c0 0-112.685-0.293-125.306-0.351-34.35 0.059-94.089 30.426-84.016 95.231 1.142 7.262 18.771 38.889 31.158 54.175h178.163v-149.055zM409.858 538.37l-129.084 74.528c0 0 56.108 97.72 62.404 108.702 17.219 29.752 73.385 66.299 124.457 25.155 5.71-4.627 24.306-35.697 31.334-54.146l-89.111-154.238zM496.011 767.283c-5.593 9.693-3.046 15.579 3.075 15.579 0 0 123.9 0.117 137.927 0.088 16.282-0.117 22.812-0.937 31.744-16.458 5.827-10.308 50.808-88.672 57.074-98.013l22.461 13.324-39.358-136.404-136.639 34.379 24.071 13.793c0 0-95.876 165.952-100.356 173.712zM823.786 289.164c0 0-61.877-107.355-68.934-119.478-8.229-14.027-12.241-19.269-30.133-19.21-11.831 0.059-102.201 0.351-113.417-0.41l0.351-26.151-98.423 102.318 98.101 101.117-0.117-27.732c0 0 191.663 0 200.653 0 11.157 0.029 14.993-5.125 11.919-10.454zM809.349 335.228c-6.882-2.636-43.077-3.133-62.55-0.059l-88.965 154.356 129.113 74.469c0 0 56.547-97.457 62.873-108.438 17.131-29.752 20.674-96.666-40.47-120.328z" />
<glyph unicode="&#xe918;" glyph-name="scratch-resist" horiz-adv-x="1026" d="M847.618 836.932c-55.268-74.712-130.941-172.174-199.342-243.16-125.772-130.611-195.285-196.577-195.285-196.577s-17.551 167.516-7.904 312.613c3.847 57.101 21.308 180.89 32.578 250.192-266.751-18.182-477.664-239.764-477.664-511.083 0-130.19 48.896-248.66 128.808-339.119l289.592 17.1-300.561 87.394 606.682 64.975-245.594 101.67 410.676-98.093-535.276-87.034 319.284-112.519-265.129-67.139h-170.041c79.43-50.489 173.406-80.122 274.475-80.122 283.251 0 512.856 229.636 512.856 512.887 0 155.194-69.242 293.98-178.155 388.016z" />
<glyph unicode="&#xe919;" glyph-name="scrubability" d="M512.029 960c-282.766 0-512.029-229.235-512.029-512s229.264-512 512.029-512 512.029 229.235 512.029 512c0 282.766-229.235 512-512.029 512zM195.382 337.307c-1.845-10.337-10.806-17.629-20.909-17.629-1.259 0-2.577 0.117-3.865 0.381-11.655 2.079-19.386 13.178-17.307 24.803l14.788 82.346 31.744-59.3c0.264-0.469 0.586-0.703 0.849-1.171l-5.3-29.43zM255.092 234.286c-1.406-10.689-10.571-18.537-21.114-18.537-0.937 0-1.903 0.059-2.899 0.176-11.655 1.552-19.942 12.299-18.361 24.013l13.529 102.084c4.158-2.284 8.317-4.275 12.299-5.886 9.488-3.543 19.24-5.242 29.225-6.179l-12.68-95.671zM345.228 225.881c-0.879-11.245-10.279-19.796-21.289-19.796-0.556 0-1.113 0.029-1.669 0.088-11.801 0.908-20.645 11.245-19.708 22.959l7.995 102.816 43.369 5.827-8.697-111.894zM435.979 237.361c0-11.772-9.576-21.348-21.348-21.348s-21.436 9.576-21.436 21.348v105.715l42.784 5.769v-111.484zM521.634 248.869c0-11.772-9.576-21.348-21.377-21.348-11.831 0-21.407 9.576-21.407 21.348v105.774l42.784 5.798v-111.572zM607.758 260.407c0-11.772-9.547-21.348-21.377-21.348-11.801 0-21.377 9.576-21.377 21.348v105.861l42.784 5.769v-111.63zM697.426 272.414c0-11.714-9.576-21.348-21.348-21.348s-21.348 9.634-21.348 21.348v106.008l42.725 5.769v-111.777zM765.452 262.018c-0.439-0.029-0.849-0.059-1.259-0.059-11.245 0-20.616 8.814-21.231 20.177l-5.769 107.413 42.55 5.74 5.945-110.84c0.644-11.772-8.404-21.817-20.235-22.431zM310.732 374.439c-5.33-0.674-10.425-0.966-15.257-0.966-25.594 1.64-50.515 3.865-69.579 32.739l-56.342 105.1c-1.523 3.046-2.489 5.71-3.251 8.199-0.351 1.171-0.615 2.343-0.879 3.543-0.586 2.782-0.879 5.33-1.025 7.731 0 0.439-0.176 0.849-0.176 1.288 0 0.176 0.059 0.322 0.088 0.527-0.029 0.732-0.059 1.552-0.117 2.284 0.322 16.048 4.305 31.89 11.831 48.26 7.936 14.964 18.39 34.994 47.791 40.588l485.967 65.157c5.154 0.732 10.337 1.054 15.462 1.054 25.594-1.611 50.72-3.924 69.696-32.827l56.284-105.129 0.088-0.059c6.852-14.173 9.312-27.732 9.81-46.064-0.059-9.752-0.966-20.294-6.442-32.212-4.275-10.396-16.34-22.139-31.187-26.063-8.287-3.807-16.926-6.647-26.502-7.995l-486.259-65.157zM852.338 297.861c-0.879-0.117-1.786-0.146-2.665-0.146-10.601 0-19.825 7.936-21.202 18.771l-10.63 85.89c7.614 2.431 15.023 5.593 22.197 10.249 5.71 3.778 12.182 9.429 17.57 16.926l13.353-107.853c1.464-11.684-6.911-22.402-18.625-23.837z" />
<glyph unicode="&#xe91a;" glyph-name="washability" d="M369.914 668.303c3.748 15.725 11.011 29.928 20.762 42.198-19.415 25.067-49.431 41.495-83.635 41.525-58.626-0.059-106.037-47.499-106.154-106.125 0.029-19.503 5.681-37.513 14.876-53.209 20.323-0.264 16.633-10.337 39.035-9.137-1.698 6.384-2.899 12.914-2.899 19.825 0 42.55 34.438 76.987 76.987 76.987 15.14 0 29.137-4.51 41.027-12.065zM512.029 960c-282.766 0-512.029-229.235-512.029-511.971 0-282.766 229.264-512 512.029-512s512 229.235 512 512c0.029 282.736-229.205 511.971-512 511.971zM852.016 429.844c0-21.436-11.831-21.436-11.831-42.842 0-21.436 11.831-21.436 11.831-42.784 0-44.336-36.224-33.413-66.474-33.179 2.226-9.722 3.631-19.737 3.631-30.104 0-6.794-1.025-13.324-1.991-19.884 26.063-12.358 44.219-38.655 44.219-69.403 0-42.491-34.496-76.987-76.987-76.987-27.468 0-51.393 14.496-65.040 36.166-11.421-3.133-23.193-5.359-35.609-5.359-73.181 0-132.305 58.129-134.94 130.548-28.669-5.154-27.029-26.326-57.66-30.455-31.627-4.246-34.643 18.332-66.24 14.086-31.656-4.275-28.64-26.824-60.296-31.070s-35.639 19.093-66.328 19.093c-27.322 0-18.156 35.873-26.033 50.573-7.848 14.642-18.302 9.049-26.151 23.691-7.79 14.613 2.665 20.206-5.154 34.819-7.848 14.613-23.603 8.639-26.619 24.979-3.836 20.733 11.626 23.632 11.626 45.127 0 21.436-11.831 21.436-11.831 42.96 0 21.436 11.831 21.436 11.831 42.842 0 21.436-11.831 21.436-11.831 42.784 0 9.254 2.167 17.102 5.915 23.456-11.391 19.854-18.42 42.52-18.42 67.031 0 74.762 60.618 135.438 135.438 135.438 42.432 0 79.799-19.913 104.631-50.427 18.156 13.295 40.324 21.407 64.571 21.407 58.275 0 105.393-45.507 108.907-102.845 22.754-1.113 28.435-18.244 56.342-14.496 31.568 4.246 28.581 26.795 60.178 31.041 31.568 4.246 39.065-14.115 57.719-14.115 8.609 0 21.348-0.908 29.167-15.608 7.907-14.642-2.577-20.235 5.33-34.936 7.848-14.642 18.273-9.049 26.151-23.691 7.848-14.583-2.636-20.177 5.213-34.789s23.603-8.639 26.619-24.979c3.865-20.733-11.626-23.632-11.626-45.127-0.117-21.465 11.743-21.465 11.743-42.96zM758.6 268.197c0.527 4.246 1.318 8.375 1.318 12.739-0.117 58.656-47.557 106.037-106.154 106.183-58.714-0.146-106.096-47.528-106.213-106.183 0.117-58.597 47.557-106.008 106.213-106.154 8.668 0.029 16.955 1.376 25.008 3.338-0.791 4.393-1.376 8.902-1.376 13.529 0 42.491 34.496 76.987 76.987 76.987 1.493 0 2.811-0.351 4.217-0.439zM405.494 606.485c15.169 8.229 18.976 22.431 43.487 25.711 31.597 4.246 34.614-18.302 66.211-14.056 23.398 3.104 27.79 16.34 41.378 24.657 0 0.029 0 0.029 0 0.059-0.059 44.307-35.961 80.179-80.326 80.267-44.365-0.088-80.209-35.99-80.267-80.267 0-1.025 0.264-1.991 0.293-3.046 5.418-10.015 8.756-21.26 9.224-33.325zM376.562 603.38c0-26.346-21.358-47.704-47.704-47.704s-47.704 21.358-47.704 47.704c0 26.346 21.358 47.704 47.704 47.704s47.704-21.358 47.704-47.704zM706.709 191.649c0.088-26.326 21.348-47.645 47.704-47.704 26.326 0.059 47.645 21.348 47.704 47.704-0.059 26.326-21.348 47.674-47.704 47.674s-47.616-21.348-47.704-47.674zM796.347 532.484c-18.507-2.167-29.108-11.567-36.019-18.244-7.409-6.765-11.099-10.747-24.218-12.797-2.431-0.264-4.598-0.439-6.296-0.439-16.018-1.318-22.226 13.881-50.983 15.198-2.899 0-5.886-0.234-9.049-0.644-18.449-2.226-29.050-11.626-35.99-18.332-7.35-6.706-11.040-10.659-24.189-12.651-2.284-0.322-4.451-0.439-6.208-0.439-15.96-1.347-22.168 13.793-50.983 15.081-2.899 0-5.886-0.205-9.049-0.615-18.361-2.226-28.962-11.596-35.844-18.332-7.409-6.706-11.011-10.659-24.159-12.68-2.226-0.293-4.393-0.439-6.15-0.439-16.018-1.318-22.256 13.822-51.071 15.169-2.841 0-5.827-0.205-9.049-0.674-18.39-2.167-29.050-11.567-35.931-18.244-7.409-6.706-11.040-10.718-24.189-12.739-2.343-0.322-4.393-0.439-6.208-0.439-11.567-0.059-16.458 4.89-29.108 10.601-5.418 2.343-11.743-0.176-14.027-5.593-2.372-5.447 0.117-11.684 5.535-14.027 8.141-3.251 18.742-12.299 37.601-12.358 2.841 0 5.798 0.234 8.932 0.615 18.566 2.226 29.167 11.626 36.107 18.332 7.35 6.706 11.011 10.659 24.159 12.739 2.313 0.293 4.334 0.41 6.15 0.41 15.989 1.347 22.197-13.793 51.071-15.081 2.899 0 5.798 0.205 8.727 0.556 18.683 2.226 29.284 11.626 36.166 18.332 7.38 6.706 11.011 10.659 24.13 12.68 2.284 0.293 4.334 0.498 6.15 0.498 15.989 1.318 22.197-13.822 50.983-15.14 2.928 0 5.798 0.234 8.873 0.527 18.654 2.226 29.225 11.626 36.166 18.332 7.409 6.706 11.040 10.718 24.218 12.739 2.284 0.381 4.334 0.498 6.15 0.498 15.93 1.318 22.139-13.822 50.983-15.14 2.987 0 5.857 0.234 8.814 0.556 18.771 2.226 29.372 11.626 36.283 18.39 7.409 6.706 11.099 10.659 24.276 12.709 5.798 0.791 9.957 6.15 9.166 12.006-0.703 5.769-6.032 9.898-11.919 9.078z" />
<glyph unicode="&#xe91b;" glyph-name="water-repel" horiz-adv-x="1022" d="M997.547 605.491c-66.492 205.653-259.311 354.509-487.083 354.509-272.657 0-494.831-213.265-510.464-481.963l757.248-158.31 240.299 285.764zM708.506 576.137c-3.55-10.411-1.195-39.322-4.71-48.606-3.447-9.284-56.73-24.303-90.317-19.661-33.519 4.642-87.996-1.195-105.37-5.837-17.408-4.676-53.35-15.087-93.867-19.695-40.55-4.608-71.851 6.895-82.261 12.766-10.445 5.769-38.161 24.303-49.835 32.427-11.503 8.090-38.195 5.803-50.859 5.803-12.834 0-32.461 1.161-52.122 3.516-19.729 2.287-20.924 1.161-44.1 8.090-23.142 6.929-40.55 27.785-50.961 44.032-10.377 16.179-6.929 38.161-4.608 48.572 2.287 10.445 15.019 34.816 15.019 34.816 0.546 0.819 0.546 0.785 0.341 0.341 17.783 25.259 96.085 48.367 139.878 61.030 43.964 12.732 68.233 12.732 84.617 12.732 16.111 0 51.985-3.516 63.693-6.963 11.435-3.482 35.772-1.161 48.538-5.769 12.732-4.642 83.49-26.624 93.901-33.587 2.901-1.98 7.441-3.686 12.595-5.393 0.375 0.444 0.717 0.819 1.536 0.717 2.116-0.239 6.417-1.536 11.981-3.447-0.034 0.205 0.171 0.273 0.649 0.205 5.871-0.751 25.088-8.124 47.241-17.783 18.876-5.427 61.338-26.112 83.49-43.452 13.141-10.377 20.685-27.955 20.855-28.16 6.963-10.445 8.021-16.213 4.676-26.692zM1022.293 451.618l-253.133-302.046-750.217 156.16c61.645-213.47 258.15-369.732 491.52-369.732 282.726 0 512 229.239 512 512 0 1.229-0.171 2.423-0.171 3.618z" />
<glyph unicode="&#xe91c;" glyph-name="warranty" d="M512.007 960c-282.321 0-512.007-229.686-512.007-512.007s229.686-512.007 512.007-512.007c282.321 0 512.007 229.686 512.007 512.007s-229.686 512.007-512.007 512.007zM512.007-11.034c-253.123 0-459.041 205.931-459.041 459.028 0 253.123 205.918 459.041 459.041 459.041s459.041-205.918 459.041-459.041c-0.013-253.097-205.931-459.028-459.041-459.028zM512.007 831.995c-212.088 0-384.002-171.927-384.002-384.002 0-212.101 171.914-384.002 384.002-384.002 212.101 0 384.002 171.9 384.002 384.002 0 212.075-171.914 384.002-384.002 384.002zM670.904 209.648l-158.897 119.173-158.897-119.173 58.726 188.254-138.174 116.313h172.139l66.207 158.897 66.207-158.897h172.139l-138.174-116.313 58.726-188.254z" />
<glyph unicode="&#xe91d;" glyph-name="recycle" d="M627.985 945.664l-288.814 2.958c-44.237-7.191-76.8-49.471-101.854-98.19l-70.315-129.183 210.375-118.738 135.009 243.94c18.432 39.299 53.385 84.628 115.598 99.214zM982.812 502.363l-76.846 125.224-203.981-129.798 144.065-238.524c24.804-35.499 46.808-88.587 29.173-151.074l142.564 255.818c15.269 42.894-5.257 92.41-34.975 138.354zM801.838 276.332l-162.406-1.57-4.574 74.024-115.712-207.098 121.401-194.15 8.488 82.307 129.843 10.263c61.144 2.685 77.665 75.389 75.48 113.618-2.116 37.638-27.034 82.307-52.52 122.607zM14.723 337.795l137.489-258.662c27.625-35.931 79.735-44.419 133.734-43.099h145.021v244.941l-274.978 1.957c-42.689-2.617-98.577 6.531-141.266 54.864zM519.145 798.777l80.1-143.883-61.349-39.936 233.95-2.685 107.884 202.251-74.798-32.313-71.748 110.66c-31.949 53.134-102.423 32.631-134.19 12.151-31.312-20.139-57.594-64.011-79.849-106.246zM63.716 331.696c32.472-18.091 82.876-20.275 129.957-19.593l84.742 141.107 64.034-35.271-111.115 209.67-226.008-1.934 64.034-50.95-60.279-117.623c-30.128-54.204 21.641-107.042 54.636-125.406z" />
<glyph unicode="&#xe91e;" glyph-name="map" d="M323.918 19.592c-17.324 0-31.347 14.043-31.347 31.347v668.735c0 17.324 14.023 31.347 31.347 31.347s31.347-14.023 31.347-31.347v-668.735c0-17.324-14.023-31.347-31.347-31.347zM616.49 479.347c-17.304 0-31.347 14.023-31.347 31.347v417.959c0 17.304 14.043 31.347 31.347 31.347s31.347-14.043 31.347-31.347v-417.959c0-17.324-14.043-31.347-31.347-31.347zM323.918 19.592c-6.395 0-12.769 1.944-18.223 5.831l-292.571 208.98c-8.234 5.872-13.124 15.381-13.124 25.516v668.735c0 11.745 6.562 22.507 16.99 27.878 10.449 5.35 23.009 4.451 32.58-2.361l274.348-195.981 274.348 195.96c10.888 7.774 25.558 7.774 36.446 0l292.571-208.98c8.234-5.872 13.124-15.381 13.124-25.496v-208.98c0-17.324-14.043-31.347-31.347-31.347s-31.347 14.023-31.347 31.347v192.846l-261.224 186.598-274.348-195.96c-10.888-7.774-25.558-7.774-36.446 0l-243.001 173.558v-591.705l261.224-186.577 232.552 166.097c14.106 10.052 33.667 6.771 43.739-7.293 10.052-14.106 6.792-33.667-7.293-43.739l-250.776-179.116c-5.454-3.887-11.828-5.81-18.223-5.81zM825.469-64c-9.279 0-18.098 4.117-24.054 11.264-17.868 21.379-174.477 211.884-174.477 312.654 0 109.464 89.067 198.531 198.531 198.531s198.531-89.067 198.531-198.531c0-100.749-156.609-291.276-174.477-312.654-5.956-7.147-14.775-11.264-24.054-11.264zM825.469 395.755c-74.898 0-135.837-60.938-135.837-135.837 0-51.764 75.546-165.512 135.837-242.625 60.291 77.155 135.837 190.945 135.837 242.625 0 74.877-60.938 135.837-135.837 135.837zM825.469 165.878c-51.848 0-94.041 42.193-94.041 94.041s42.193 94.041 94.041 94.041 94.041-42.193 94.041-94.041-42.193-94.041-94.041-94.041zM825.469 291.265c-17.283 0-31.347-14.064-31.347-31.347s14.064-31.347 31.347-31.347 31.347 14.064 31.347 31.347-14.064 31.347-31.347 31.347z" />
<glyph unicode="&#xe91f;" glyph-name="order-samples" d="M679.184-43.102c-51.848 0-94.041 42.193-94.041 94.041s42.193 94.041 94.041 94.041 94.041-42.193 94.041-94.041-42.193-94.041-94.041-94.041zM679.184 82.286c-17.283 0-31.347-14.064-31.347-31.347s14.064-31.347 31.347-31.347 31.347 14.064 31.347 31.347-14.064 31.347-31.347 31.347zM219.429-43.102c-51.848 0-94.041 42.193-94.041 94.041s42.193 94.041 94.041 94.041 94.041-42.193 94.041-94.041-42.193-94.041-94.041-94.041zM219.429 82.286c-17.283 0-31.347-14.064-31.347-31.347s14.064-31.347 31.347-31.347 31.347 14.064 31.347 31.347-14.064 31.347-31.347 31.347zM846.367 165.878h-815.020c-17.324 0-31.347 14.043-31.347 31.347s14.023 31.347 31.347 31.347h787.143l80.353 682.841c1.86 15.799 15.214 27.69 31.117 27.69h62.694c17.304 0 31.347-14.023 31.347-31.347s-14.043-31.347-31.347-31.347h-34.816l-80.353-682.841c-1.86-15.799-15.214-27.69-31.117-27.69zM449.306 249.469h-376.163c-17.324 0-31.347 14.043-31.347 31.347v167.184c0 17.324 14.023 31.347 31.347 31.347h376.163c17.324 0 31.347-14.023 31.347-31.347v-167.184c0-17.304-14.023-31.347-31.347-31.347zM104.49 312.163h313.469v104.49h-313.469v-104.49zM365.714 416.653h-250.776c-17.324 0-31.347 14.043-31.347 31.347v125.388c0 17.324 14.023 31.347 31.347 31.347h250.776c17.324 0 31.347-14.023 31.347-31.347v-125.388c0-17.304-14.023-31.347-31.347-31.347zM146.286 479.347h188.082v62.694h-188.082v-62.694zM741.878 249.469h-292.571c-17.324 0-31.347 14.043-31.347 31.347v459.755c0 17.324 14.023 31.347 31.347 31.347h292.571c17.304 0 31.347-14.023 31.347-31.347v-459.755c0-17.304-14.043-31.347-31.347-31.347zM480.653 312.163h229.878v397.061h-229.878v-397.061z" />
<glyph unicode="&#xe920;" glyph-name="circlecheck" d="M512 960c-283.307 0-512-228.693-512-512s228.693-512 512-512c283.307 0 512 228.693 512 512s-228.693 512-512 512zM512 4.267c-245.76 0-443.733 197.973-443.733 443.733s197.973 443.733 443.733 443.733 443.733-197.973 443.733-443.733-197.973-443.733-443.733-443.733zM761.173 642.56l-317.44-351.573-180.907 180.907c-13.653 13.653-34.133 13.653-47.787 0s-13.653-34.133 0-47.787l228.693-228.693 365.227 402.773c13.653 13.653 10.24 34.133-3.413 47.787-10.24 10.24-34.133 10.24-44.373-3.413z" />
<glyph unicode="&#xe921;" glyph-name="download-generic" d="M894.336 690.859c-1.067 2.603-2.645 4.949-4.608 6.912l-255.915 255.957c-1.963 1.963-4.309 3.541-6.912 4.608s-5.419 1.664-8.235 1.664h-469.333c-11.776 0-21.333-9.557-21.333-21.333v-981.333c0-11.776 9.557-21.333 21.333-21.333h725.333c11.776 0 21.333 9.557 21.333 21.333v725.333c0 2.859-0.597 5.632-1.664 8.192zM853.333-21.333h-682.667v938.667h426.667v-209.152c0 12.075 9.771 21.888 21.888 21.888 10.112 0 18.304-7.040 20.779-16.341v173.44l183.168-183.168h-182.059v-17.707c0-12.075-9.813-21.888-21.931-21.888s-21.845 9.813-21.845 21.888v-3.627c0-11.776 9.557-21.333 21.333-21.333h234.667v-682.667zM641.109 390.699c0 12.075-9.813 21.931-21.931 21.931s-21.845-9.856-21.845-21.931v-99.712c0-12.075 9.771-21.931 21.888-21.931h70.571l-129.749-141.056-139.904 141.099h67.797c12.075 0 21.888 9.813 21.888 21.931v99.712c0 12.075-9.771 21.931-21.888 21.931s-21.888-9.813-21.888-21.931v-77.824h-98.56c-8.832 0-16.811-5.291-20.224-13.44s-1.536-17.579 4.651-23.851l193.152-194.645c4.139-4.181 9.728-6.485 15.531-6.485 0.128 0 0.299 0 0.427 0 5.973 0.128 11.648 2.645 15.701 7.083l178.987 194.645c5.845 6.4 7.424 15.659 3.925 23.595-3.499 8.021-11.392 13.141-20.096 13.141h-98.517v77.739zM619.221 434.517c12.075 0 21.931 9.771 21.931 21.931v65.664c0 12.075-9.813 21.888-21.931 21.888s-21.888-9.813-21.888-21.931v-65.664c0-12.117 9.771-21.888 21.888-21.888zM487.936 434.517c12.075 0 21.888 9.771 21.888 21.931v65.664c0 12.075-9.771 21.888-21.888 21.888s-21.888-9.813-21.888-21.888v-65.664c0-12.16 9.771-21.931 21.888-21.931zM597.333 620.587v-30.208c0-12.075 9.771-21.888 21.888-21.888s21.931 9.813 21.931 21.888v30.208c0 12.117-9.813 21.888-21.931 21.888s-21.888-9.771-21.888-21.888zM487.936 565.632c12.075 0 21.888 9.771 21.888 21.888v30.251c0 12.117-9.771 21.888-21.888 21.888s-21.888-9.771-21.888-21.888v-30.251c0-12.117 9.771-21.888 21.888-21.888zM619.221 664.405c12.075 0 21.931 9.813 21.931 21.888v21.888c0 1.963-0.64 3.755-1.109 5.547-2.517 9.301-10.667 16.341-20.779 16.341-12.16 0-21.931-9.813-21.931-21.888v-21.888c0-12.075 9.771-21.888 21.888-21.888zM487.936 664.405c12.075 0 21.888 9.813 21.888 21.888v21.888c0 12.075-9.771 21.888-21.888 21.888s-21.888-9.813-21.888-21.888v-21.888c0-12.075 9.771-21.888 21.888-21.888z" />
<glyph unicode="&#xe922;" glyph-name="download-pdf" d="M741.179-16.108h-679.030v933.652h424.409v-233.433c0-11.697 9.492-21.189 21.228-21.189h233.433v-151.788h42.417v172.977c0 2.796-0.591 5.632-1.654 8.192-1.063 2.599-2.639 4.923-4.569 6.853l-254.582 254.622c-1.969 1.93-4.254 3.466-6.892 4.608-2.599 1.024-5.356 1.615-8.192 1.615h-466.786c-11.737 0-21.268-9.531-21.268-21.228v-976.108c0-11.697 9.531-21.189 21.268-21.189h721.447c11.776 0 21.228 9.492 21.228 21.189v154.624h-42.417v-133.396zM529.014 887.572l182.154-182.193h-182.154v182.193zM472.576 381.361h-38.991v-54.981h39.345c18.786 0 31.941 10.279 31.941 27.648-0.039 18.078-12.8 27.333-32.295 27.333zM977.487 511.134h-630.154c-21.78 0-39.385-17.605-39.385-39.385v-315.077c0-21.78 17.644-39.385 39.385-39.385h630.154c21.78 0 39.385 17.605 39.385 39.385v315.077c0 21.74-17.605 39.385-39.385 39.385zM535.316 301.922c-14.887-12.761-34.737-19.141-59.195-19.141h-42.535v-69.829h-51.436v212.716h93.972c24.103 0 43.599-6.735 58.88-20.204 15.281-13.509 23.040-30.484 23.040-51.436-0.039-21.622-7.483-38.991-22.725-52.106zM750.080 242.688c-20.204-19.85-47.458-29.775-81.172-29.775h-81.92v212.716h81.92c33.674 0 60.967-9.925 81.172-30.129 20.244-19.889 30.523-45.371 30.523-76.249s-10.279-56.32-30.523-76.564zM968.862 381.361h-104.606v-40.763h86.489v-40.409h-86.489v-87.237h-51.436v212.716h156.042v-44.308zM665.009 381.361h-26.585v-124.101h26.585c17.723 0 32.61 5.711 44.308 16.699 12.091 11.343 18.078 26.585 18.078 45.371 0 39.66-26.545 62.031-62.385 62.031z" />
<glyph unicode="&#xe923;" glyph-name="download-zip" horiz-adv-x="1035" d="M219.793 726.227h42.81v-42.81h-42.81v42.81zM348.264 515.898c0 10.93-8.871 19.801-19.801 19.801h-57.582c3.683 3.604 5.94 8.594 5.94 14.098 0 10.93-8.871 19.801-19.801 19.801h-71.364c-10.93 0-19.801-8.871-19.801-19.801s8.871-19.801 19.801-19.801h57.542c-3.683-3.604-5.94-8.554-5.94-14.098s2.337-10.574 6.020-14.138h-57.622c-10.93 0-19.801-8.871-19.801-19.801s8.871-19.801 19.801-19.801h57.542c-3.683-3.604-5.94-8.594-5.94-14.098 0-5.584 2.337-10.574 6.020-14.138h-57.622c-10.93 0-19.801-8.871-19.801-19.801s8.871-19.801 19.801-19.801h57.622c-3.683-3.604-6.020-8.594-6.020-14.138s2.297-10.613 5.98-14.217h-57.582c-10.93 0-19.801-8.871-19.801-19.801s8.871-19.801 19.801-19.801h57.622c-3.683-3.604-6.020-8.594-6.020-14.138s2.297-10.534 5.94-14.098h-57.542c-10.93 0-19.801-8.871-19.801-19.801s8.871-19.801 19.801-19.801h57.622c-3.683-3.604-6.020-8.594-6.020-14.138s2.297-10.534 5.94-14.098h-57.542c-10.93 0-19.801-8.871-19.801-19.801s8.871-19.801 19.801-19.801h57.622c-3.683-3.604-6.020-8.594-6.020-14.138s2.337-10.574 6.020-14.138h-57.622c-10.93 0-19.801-8.871-19.801-19.801s8.871-19.801 19.801-19.801h57.622c-3.723-3.683-6.059-8.673-6.059-14.257s2.337-10.574 6.020-14.138h-57.582c-10.93 0-19.801-8.871-19.801-19.801s8.871-19.801 19.801-19.801h71.364c10.93 0 19.801 8.871 19.801 19.801 0 5.584-2.337 10.574-6.020 14.138h57.661c10.93 0 19.801 8.871 19.801 19.801s-8.871 19.801-19.801 19.801h-57.661c3.683 3.604 6.020 8.594 6.020 14.138s-2.337 10.574-6.020 14.138h57.661c10.93 0 19.801 8.871 19.801 19.801s-8.871 19.801-19.801 19.801h-57.661c3.683 3.604 6.020 8.594 6.020 14.138s-2.297 10.534-5.94 14.098h57.582c10.93 0 19.801 8.871 19.801 19.801s-8.871 19.801-19.801 19.801h-57.661c3.683 3.604 6.020 8.594 6.020 14.138s-2.297 10.534-5.94 14.098h57.582c10.93 0 19.801 8.871 19.801 19.801s-8.871 19.801-19.801 19.801h-57.661c3.723 3.683 6.020 8.673 6.020 14.257s-2.337 10.574-6.020 14.138h57.661c10.93 0 19.801 8.871 19.801 19.801s-8.871 19.801-19.801 19.801h-57.661c3.683 3.604 6.020 8.594 6.020 14.138s-2.337 10.574-6.020 14.138h57.661c10.93 0 19.801 8.871 19.801 19.801s-8.871 19.801-19.801 19.801h-57.582c3.683 3.604 5.94 8.554 5.94 14.098s-2.337 10.574-6.020 14.138h57.661c10.93 0.079 19.801 8.95 19.801 19.88zM898.381 361.885h-39.206v-55.285h39.523c18.93 0 32.118 10.336 32.118 27.801-0.040 18.217-12.871 27.484-32.434 27.484zM993.506 510.235h-241.060v258.802c0 5.267-2.099 10.297-5.782 14.019l-171.162 171.162c-3.762 3.683-8.792 5.782-14.059 5.782h-541.642c-10.93 0-19.801-8.871-19.801-19.801v-984.398c0-10.93 8.871-19.801 19.801-19.801h712.844c10.97 0 19.801 8.871 19.801 19.801v158.41h241.1c22.732 0 41.187 17.742 41.187 39.642v316.819c-0.040 21.821-18.455 39.563-41.226 39.563zM712.844-24.398h-673.241v944.795h215.002v-65.78c0-10.93 8.871-19.801 19.801-19.801h14.138v-180.31h-96.194v200.824c0 10.93-8.871 19.801-19.801 19.801s-19.801-8.871-19.801-19.801v-220.625c0-10.93 8.871-19.801 19.801-19.801h135.797c10.93 0 19.801 8.871 19.801 19.801v219.912c0 10.93-8.871 19.801-19.801 19.801h-14.138v45.978h259.079l159.558-159.558v-250.604h-254.723c-22.732 0-41.187-17.702-41.187-39.563v-316.819c0-21.9 18.455-39.642 41.187-39.642h254.723v-138.609zM506.277 361.885v44.553h170.449v-40.632l-103.758-128.708h104.115v-44.553h-174.33v38.85l105.54 130.49h-102.016zM763.258 192.545h-51.681v213.893h51.681v-213.893zM961.468 282.046c-14.97-12.831-34.929-19.247-59.522-19.247h-42.771v-70.215h-51.76v213.893h94.531c24.197 0 43.84-6.772 59.166-20.316 15.326-13.584 23.167-30.652 23.167-51.721 0-21.742-7.445-39.206-22.811-52.394z" />
<glyph unicode="&#xe924;" glyph-name="heart-filled" d="M511.959-22.958c-9.626 0-18.842 4.014-25.395 10.936l-409.231 434.34c-0.082 0.082-0.205 0.164-0.287 0.328-49.684 54.149-77.046 125.911-77.046 202.056 0 76.186 27.361 147.988 77.046 202.138l6.185 6.758c50.586 55.132 118.088 85.443 190.136 85.443 72.008 0 139.51-30.31 190.095-85.484l48.497-52.879 48.497 52.879c50.545 55.132 118.047 85.484 190.095 85.484s139.551-30.351 190.136-85.484l6.185-6.717c49.684-54.19 77.046-125.952 77.046-202.138 0-76.145-27.361-147.907-77.046-202.056-0.123-0.164-0.205-0.246-0.287-0.328l-409.231-434.34c-6.554-6.922-15.77-10.936-25.395-10.936z" />
<glyph unicode="&#xe925;" glyph-name="heart" d="M511.959-22.958c-9.626 0-18.842 4.014-25.395 10.936l-409.231 434.34c-0.082 0.082-0.205 0.164-0.287 0.328-49.684 54.149-77.046 125.911-77.046 202.056 0 76.186 27.361 147.988 77.046 202.138l6.185 6.758c50.586 55.132 118.088 85.443 190.136 85.443 72.008 0 139.51-30.31 190.095-85.484l48.497-52.879 48.497 52.879c50.545 55.132 118.047 85.484 190.095 85.484s139.551-30.351 190.136-85.484l6.185-6.717c49.684-54.19 77.046-125.952 77.046-202.138 0-76.145-27.361-147.907-77.046-202.056-0.123-0.164-0.205-0.246-0.287-0.328l-409.231-434.34c-6.554-6.922-15.77-10.936-25.395-10.936zM128.287 468.48l383.672-407.142 383.672 407.142c78.93 86.262 78.889 226.427-0.164 312.607l-6.226 6.717c-37.233 40.673-86.467 63.037-138.691 63.037s-101.417-22.364-138.691-62.996l-74.22-80.896c-6.554-7.127-15.892-11.264-25.682-11.264s-19.128 4.137-25.682 11.264l-74.22 80.896c-37.274 40.632-86.508 62.996-138.691 62.996s-101.458-22.364-138.691-62.996l-6.226-6.758c-79.053-86.18-79.094-226.345-0.164-312.607z" />
<glyph unicode="&#xe926;" glyph-name="star-filled" horiz-adv-x="1032" d="M1031.117 574.189c-2.919 8.909-11.316 25.294-38.453 29.697l-303.273 46.031-132.307 278.9c-12.801 26.625-28.469 31.182-41.269 31.182-25.601 0-39.836-26.677-42.703-31.182l-132.359-278.9-299.023-44.546c-19.918-2.97-35.586-14.798-39.784-31.182-5.683-17.87 1.434-35.586 18.433-53.455l213.566-215.153-49.871-307.215c-1.434-7.424-5.632-31.182 8.551-47.516 11.367-14.849 31.387-17.921 52.739-7.424 0 0 1.485 0 1.485 1.485l269.069 148.334 269.069-148.334c9.984-5.939 19.918-9.012 28.52-9.012 11.316 0 19.918 4.455 26.984 11.828 5.683 5.888 11.367 17.87 8.602 40.143l-51.356 317.763 217.764 221.041c18.433 19.355 18.433 35.535 15.617 47.516z" />
<glyph unicode="&#xe927;" glyph-name="star-half" horiz-adv-x="1032" d="M1031.117 574.189c-2.919 8.909-11.316 25.294-38.453 29.697l-303.273 46.031-132.307 278.9c-12.801 26.625-28.469 31.182-41.269 31.182-25.601 0-39.836-26.677-42.703-31.182l-132.359-278.9-299.023-44.546c-19.918-2.97-35.586-14.798-39.784-31.182-5.683-17.87 1.434-35.586 18.433-53.455l213.566-215.153-49.871-307.215c-1.434-7.424-5.632-31.182 8.551-47.516 11.367-14.849 31.387-17.921 52.739-7.424 0 0 1.485 0 1.485 1.485l269.069 148.334 269.069-148.334c9.984-5.939 19.918-9.012 28.52-9.012 11.316 0 19.918 4.455 26.984 11.828 5.683 5.888 11.367 17.87 8.602 40.143l-51.356 317.763 217.764 221.041c18.433 19.355 18.433 35.535 15.617 47.516zM750.63 333.844c-5.632-5.939-8.602-14.9-7.117-23.809l51.305-308.547-279.259 145.364v744.844l132.359-280.385c4.199-7.424 11.367-13.364 19.918-14.849l297.589-44.495-214.795-218.123z" />
<glyph unicode="&#xe928;" glyph-name="star" horiz-adv-x="1032" d="M1031.117 574.189c-2.919 8.909-11.316 25.294-38.453 29.697l-303.273 46.031-132.307 278.9c-12.801 26.625-28.469 31.182-41.269 31.182-25.601 0-39.836-26.677-42.703-31.182l-132.359-278.9-299.023-44.546c-19.918-2.97-35.586-14.798-39.784-31.182-5.683-17.87 1.434-35.586 18.433-53.455l213.566-215.153-49.871-307.215c-1.434-7.424-5.632-31.182 8.551-47.516 11.367-14.849 31.387-17.921 52.739-7.424 0 0 1.485 0 1.485 1.485l269.069 148.334 269.069-148.334c9.984-5.939 19.918-9.012 28.52-9.012 11.316 0 19.918 4.455 26.984 11.828 5.683 5.888 11.367 17.87 8.602 40.143l-51.356 317.763 217.764 221.041c18.433 19.355 18.433 35.535 15.617 47.516zM750.63 333.844c-5.632-5.939-8.602-14.9-7.117-23.809l51.305-308.547-266.305 145.364c-7.168 4.403-17.153 4.403-24.27 0l-266.305-145.364 51.254 308.547c1.434 8.909-1.434 17.87-7.117 23.809l-216.331 218.123 297.538 44.495c8.551 1.485 15.668 7.424 19.918 14.849l132.359 280.385 132.359-280.385c4.199-7.424 11.367-13.364 19.918-14.849l297.589-44.495-214.795-218.123z" />
</font>
</defs>
</svg>
